<?xml version="1.0" encoding="utf-8"?>
<svg xmlns="http://www.w3.org/2000/svg" xmlns:xlink="http://www.w3.org/1999/xlink" version= "1.1" width="1280px" height="1280px" viewBox="0 689 1280 1280">
<g id="layer2">
<g style="fill:rgb(0,0,0); fill-opacity:1.0; stroke-linejoin: miter">
<path d="M874.92236,1305.2041L849.96814,1306.8829L826.0342,1311.7732L803.3399,1319.656L782.104,1330.3119L762.54614,1343.5222L744.8848,1359.0675L729.33954,1376.7286L716.1293,1396.2867L705.4732,1417.5226L697.5906,1440.2168Q683.13586,1494.5125,700.4998,1547.5404Q735.55237,1530.5378,775.6852,1544.8291Q753.76245,1506.2314,765.1952,1458.8546Q778.3386,1414.2888,817.4895,1390.849Q857.44543,1367.5386,905.5459,1379.4814Q925.1443,1385.0249,941.2635,1396.642Q945.9935,1398.7538,962.7555,1416.7538Q969.0305,1424.3599,973.9352,1432.9838Q983.5808,1398.7677,982.14417,1339.6809Q935.9019,1306.1676,874.92236,1305.2041"/>
</g>
<g style="fill:rgb(0,0,0); fill-opacity:1.0; stroke-linejoin: miter">
</g>
<g style="fill:rgb(0,0,0); fill-opacity:1.0; stroke-linejoin: miter">
<path d="M878.92017,1602.8285L878.9158,1602.829L878.9114,1602.8295Q878.9153,1602.83,878.9192,1602.8304Q878.9197,1602.8295,878.92017,1602.8285"/>
</g>
<g style="fill:rgb(0,0,0); fill-opacity:1.0; stroke-linejoin: miter">
<path d="M828.8457,1593.1858L829.43976,1594.3538Q829.7878,1594.7112,833.17145,1603.2202Q835.3989,1609.2698,836.8648,1615.9978Q838.50574,1624.8944,838.36206,1624.8333Q839.1673,1631.7738,839.06903,1636.1442L841.85657,1634.2483L860.60376,1619.5016L878.9191,1602.8293Q866.68024,1603.237,854.8978,1601.141Q852.8857,1600.9553,843.41327,1598.478Q835.9064,1596.3136,828.8457,1593.1858"/>
</g>
<g style="fill:rgb(0,0,0); fill-opacity:1.0; stroke-linejoin: miter">
</g>
<g style="fill:rgb(0,0,0); fill-opacity:0.99607843; stroke-linejoin: miter">
<path d="M220.87863,325.39703L220.87863,325.39703L220.87863,325.39703L220.87863,325.39703L220.87863,325.39703L220.87863,325.39703L220.87863,325.39703L220.87863,325.39703L220.87863,325.39703L220.87863,325.39703 M220.87866,395.50598L220.87866,395.50598L220.87866,395.50598L220.87866,395.50598L220.87866,395.50598L220.87866,395.50598L220.87866,395.50598L220.87866,395.50598L220.87866,395.50598 Z"/>
</g>
<g style="fill:rgb(0,0,0); fill-opacity:1.0; stroke-linejoin: miter">
<path d="M648.20624,1159.9008C647.5448,1159.9008,646.88354,1159.9194,646.2232,1159.9568L622.4627,1161.3018C621.72003,1161.3438,620.9788,1161.4094,620.24023,1161.4987L596.61346,1164.3524C595.875,1164.4417,595.13947,1164.5543,594.40814,1164.6903L571.01074,1169.0413C570.27936,1169.1772,569.5526,1169.3364,568.83136,1169.5187L545.7581,1175.3491C545.03687,1175.5314,544.32166,1175.7366,543.61346,1175.9644L520.9579,1183.2509C520.2497,1183.4786,519.549,1183.7288,518.85675,1184.0012L496.71057,1192.7141C496.01837,1192.9865,495.33502,1193.2808,494.6615,1193.5966L473.11444,1203.7007C455.5859,1211.9204,448.03958,1232.7933,456.25922,1250.3219C462.2226,1263.0388,474.8461,1270.5016,488.02063,1270.5016C493.0053,1270.5016,498.06888,1269.4333,502.88043,1267.177L523.41675,1257.547L523.41675,1257.547L543.4857,1249.6512L543.4857,1249.6512L564.01746,1243.0479L564.01746,1243.0479L584.9266,1237.7643L584.9266,1237.7643L606.1283,1233.8217L606.1283,1233.8217L627.53937,1231.2355L627.53937,1231.2355L649.07025,1230.0167L649.07025,1230.0167L670.6357,1230.1702L670.6357,1230.1702L692.14905,1231.6952L692.14905,1231.6952L713.52106,1234.5856L713.52106,1234.5856L734.6724,1238.831L734.6724,1238.831L755.225,1244.3275L755.225,1244.3275L775.39813,1251.1055L775.39813,1251.1055L795.1046,1259.1359L795.1046,1259.1359L814.2689,1268.3877L814.2689,1268.3877L832.8158,1278.825L832.8158,1278.825L850.6689,1290.4045L867.7617,1303.0834L867.7617,1303.0834L884.02527,1316.8104L884.02527,1316.8104L899.3936,1331.53L913.80725,1347.1847L913.80725,1347.1847L927.9047,1364.5706C934.8324,1373.1141,944.9498,1377.548,955.1541,1377.548C962.9105,1377.548,970.71704,1374.9863,977.21106,1369.7206C979.1852,1368.1199,980.93994,1366.3488,982.4712,1364.4457L982.481,1364.4457L982.4813,1344.6487L980.8112,1320.7269L980.4338,1318.0375L967.5704,1302.1735C967.10803,1301.6033,966.62787,1301.0479,966.1306,1300.5078L950.2242,1283.2317C949.7269,1282.6917,949.21295,1282.1674,948.68286,1281.6595L931.7232,1265.4159C931.1931,1264.9081,930.64716,1264.4172,930.0862,1263.9437L912.1403,1248.7968C911.5794,1248.3234,911.0037,1247.8677,910.4142,1247.4304L891.55286,1233.4398C890.9633,1233.0024,890.36017,1232.5839,889.7443,1232.1844L870.042,1219.4054C869.42615,1219.0059,868.7979,1218.626,868.1582,1218.2659L847.69257,1206.7489C847.05286,1206.3888,846.40204,1206.0491,845.74097,1205.73L824.5927,1195.5204C823.9317,1195.2013,823.2608,1194.903,822.58105,1194.626L800.83356,1185.764C800.1538,1185.487,799.46545,1185.2314,798.76965,1184.9977L776.50885,1177.5183C775.81305,1177.2845,775.11005,1177.0726,774.40094,1176.883L751.71454,1170.8158C751.0007,1170.6249,750.2809,1170.4567,749.5564,1170.3113L726.2232,1165.6278C725.4939,1165.4814,724.7601,1165.3583,724.0229,1165.2585L700.4391,1162.0691C699.7019,1161.9694,698.96173,1161.8932,698.2197,1161.8406L674.4808,1160.1578C673.7388,1160.1052,672.99524,1160.0763,672.25146,1160.0709L648.4536,1159.9016C648.37115,1159.901,648.2887,1159.9008,648.20624,1159.9008 Z"/>
</g>
<g style="fill:rgb(0,0,0); fill-opacity:0.99607843; stroke-linejoin: miter">
<path d="M375.675,1414.1404L374.3449,1414.1658Q361.69272,1412.4634,346.26318,1430.1621Q338.03613,1446.6626,341.5048,1457.8925Q370.9105,1526.5317,431.25955,1580.387Q533.49744,1668.2979,669.8987,1667.7777Q684.3126,1668.5316,721.19543,1663.0765Q742.5266,1659.3921,765.1577,1652.8224Q767.4138,1647.5059,768.5238,1640.2272Q742.01404,1635.1208,731.39404,1610.0336Q720.56494,1613.2993,711.24194,1610.8033Q698.4231,1607.3359,690.6781,1596.3195Q597.7619,1603.7924,521.48944,1559.3047Q480.04843,1535.3505,447.83728,1497.348Q439.70453,1489.6688,424.7049,1465.9298Q414.01288,1448.6785,405.3245,1430.4529L399.45465,1423.2073Q391.5824,1415.4901,375.675,1414.1404 Z"/>
</g>
<g style="fill:rgb(0,0,0); fill-opacity:1.0; stroke-linejoin: miter">
<path d="M605.1878,1178.9835C605.06604,1178.9835,604.9442,1178.9843,604.82245,1178.9855L586.4131,1179.1766C585.59955,1179.185,584.78656,1179.2217,583.9756,1179.2867L565.6241,1180.7579C564.8133,1180.823,564.005,1180.9161,563.20074,1181.0374L544.9959,1183.7812C544.1915,1183.9025,543.39154,1184.0518,542.5975,1184.2286L524.6277,1188.2322C523.8337,1188.409,523.0461,1188.6136,522.2663,1188.8453L504.61847,1194.089C503.83868,1194.3207,503.0672,1194.5796,502.30542,1194.8649L485.06506,1201.3235C466.9354,1208.1151,457.74414,1228.3179,464.53583,1246.4475C469.80975,1260.5258,483.17056,1269.2141,497.3678,1269.2141C501.4535,1269.2141,505.60846,1268.4945,509.6599,1266.9768L525.7567,1260.9465L525.7567,1260.9465L541.064,1256.3983L541.064,1256.3983L556.6535,1252.925L572.4432,1250.5452L572.4432,1250.5452L588.361,1249.269L588.361,1249.269L604.3295,1249.1034L604.3295,1249.1034L620.2714,1250.0486L620.2714,1250.0486L636.10645,1252.1002L636.10645,1252.1002L651.76385,1255.2488L667.16425,1259.4789L667.16425,1259.4789L682.2282,1264.7682L682.2282,1264.7682L696.91364,1271.1035L696.91364,1271.1035L710.5993,1278.1537L710.5993,1278.1537L723.8013,1286.1195L723.8013,1286.1195L736.4382,1294.9537L748.45197,1304.6156L759.79175,1315.0642L759.79175,1315.0642L770.40216,1326.2485L780.23944,1338.1226L780.23944,1338.1226L789.2556,1350.6283L797.41235,1363.7128L797.41235,1363.7128L804.6721,1377.3157L811.0017,1391.3748L816.7832,1406.9314C822.0315,1421.0533,835.41534,1429.7838,849.6464,1429.7838C853.7029,1429.7838,857.8281,1429.0745,861.85345,1427.5785C880.0008,1420.8342,889.2448,1400.6556,882.50055,1382.5082L876.3084,1365.8466C876.0348,1365.1104,875.7366,1364.3835,875.4141,1363.6674L868.117,1347.4592C867.7946,1346.7432,867.44824,1346.0381,867.0784,1345.3452L858.70935,1329.6637C858.33954,1328.9708,857.9466,1328.2905,857.5311,1327.624L848.12775,1312.54C847.7123,1311.8734,847.2745,1311.2212,846.8152,1310.5841L836.4201,1296.1656C835.96075,1295.5286,835.48016,1294.907,834.97906,1294.3021L823.63916,1280.6144C823.1381,1280.0096,822.6169,1279.4219,822.0764,1278.8522L809.84283,1265.9568C809.3023,1265.387,808.7428,1264.8356,808.1652,1264.3033L795.09326,1252.2587C794.51575,1251.7264,793.9205,1251.2139,793.3085,1250.7217L779.45715,1239.582C778.8451,1239.0898,778.2167,1238.6182,777.57294,1238.1682L763.0048,1227.9839C762.36115,1227.5339,761.7025,1227.1057,761.0301,1226.7001L745.81085,1217.5171C745.13837,1217.1113,744.45245,1216.7283,743.7542,1216.3685L727.95264,1208.2284C727.24194,1207.8623,726.519,1207.5206,725.785,1207.204L708.88055,1199.9114C708.13367,1199.5891,707.37573,1199.2931,706.6082,1199.0236L689.2375,1192.9243C688.47,1192.6548,687.69324,1192.4121,686.9088,1192.1967L669.15594,1187.3203C668.37146,1187.1049,667.5798,1186.9169,666.7822,1186.7565L648.73315,1183.1268C647.93567,1182.9664,647.13293,1182.8339,646.32623,1182.7294L628.0685,1180.3639C627.26166,1180.2594,626.4515,1180.183,625.63934,1180.1349L607.26117,1179.0452C606.5708,1179.0042,605.8794,1178.9835,605.1878,1178.9835 Z"/>
</g>
<g style="fill:rgb(0,0,0); fill-opacity:0.99607843; stroke-linejoin: miter">
<path d="M472.26758,1457.0972L472.26758,1457.0972L472.41718,1464.6168L472.40356,1464.1136L472.66113,1471.6304L472.64026,1471.1272L473.00577,1478.6394L472.97772,1478.137L473.45105,1485.6432L473.41577,1485.1409L473.99683,1492.6395L473.9545,1492.1396L474.6383,1499.5795L474.58896,1499.0818L475.37885,1506.5111L475.32242,1506.0143L476.21817,1513.4316L476.15466,1512.9355L477.15613,1520.3394L477.0855,1519.8442L478.1925,1527.233C481.06104,1546.3794,467.86523,1564.2261,448.71887,1567.0945C429.57254,1569.963,411.72595,1556.7672,408.85742,1537.6208L408.85742,1537.6208L407.75043,1530.232C407.72574,1530.0673,407.70218,1529.9022,407.67984,1529.7369L407.67984,1529.7369L406.67838,1522.3331C406.65604,1522.168,406.6349,1522.0026,406.61487,1521.8372L406.61487,1521.8372L405.71915,1514.4198C405.69916,1514.2544,405.68036,1514.0887,405.66275,1513.9231L405.66275,1513.9231L404.8729,1506.4937C404.8553,1506.328,404.8388,1506.1619,404.82358,1505.996L404.82358,1505.996L404.13977,1498.5562C404.12445,1498.3895,404.11038,1498.223,404.09747,1498.0563L404.09747,1498.0563L403.51633,1490.5576C403.50336,1490.3901,403.49164,1490.2229,403.48105,1490.0553L403.48105,1490.0553L403.00772,1482.5491C402.9972,1482.3817,402.98782,1482.2141,402.97968,1482.0466L402.97968,1482.0466L402.61414,1474.5344C402.606,1474.3667,402.59903,1474.1991,402.59326,1474.0312L402.59326,1474.0312L402.33572,1466.5145C402.32996,1466.3468,402.32544,1466.1792,402.32208,1466.0114L402.32208,1466.0114L402.1725,1458.4916C401.7874,1439.1354,417.16656,1423.132,436.52277,1422.7468C455.87903,1422.3617,471.8825,1437.7408,472.26758,1457.0972 Z"/>
</g>
<g style="fill:rgb(0,0,0); fill-opacity:0.99607843; stroke-linejoin: miter">
<path d="M835.8729,1580.7332L834.8414,1580.7485Q826.96814,1581.3268,823.14844,1583.134Q826.61554,1588.4161,829.3497,1594.123Q831.60187,1598.2762,835.1468,1609.2286Q836.98627,1615.9545,837.9656,1622.0183Q838.942,1626.7523,839.0691,1636.144L841.8566,1634.2474L860.6038,1619.5006L870.5399,1610.512Q868.3525,1597.4276,858.37665,1588.9067Q848.275,1580.7725,835.8729,1580.7332 Z"/>
</g>
<g style="fill:rgb(0,0,0); fill-opacity:0.99607843; stroke-linejoin: miter">
<path d="M521.1177,1563.2078L521.0183,1563.2079L517.84375,1563.3523L512.61993,1564.3522L507.83554,1565.8754Q503.27094,1567.6602,499.58517,1570.4912Q497.193,1571.2528,490.5054,1581.339Q488.138,1585.7396,486.64948,1591.1869Q484.90817,1602.2734,488.3472,1611.0704Q490.06668,1615.4689,493.0813,1619.2949Q501.7509,1628.3593,505.03894,1629.4851Q551.52844,1654.5522,602.67487,1666.8207Q646.3124,1677.4899,694.6223,1677.9756Q740.39044,1677.3483,765.73755,1671.9921Q761.0974,1659.7814,768.77563,1640.2672Q742.05304,1635.2506,731.3761,1609.9867Q724.24976,1612.2705,717.1815,1611.776Q710.9887,1611.526,703.26874,1607.7129Q699.2826,1608.1663,679.4076,1607.4081L662.96173,1606.1337Q650.1631,1604.9946,630.36475,1601.1598Q606.1113,1596.0901,586.2414,1588.9775Q564.47046,1581.6779,534.3608,1565.8635Q526.36395,1562.9288,521.1177,1563.2078 Z"/>
</g>
<g style="fill:rgb(0,0,0); fill-opacity:0.99607843; stroke-linejoin: miter">
<path d="M879.8659,1375.0753L879.81024,1375.0798Q883.1173,1384.8019,884.3571,1390.8892Q885.06573,1394.6915,882.7881,1405.0297Q877.56616,1416.8862,873.765,1419.7356Q869.2436,1424.316,863.2635,1426.8134Q842.7009,1433.0728,830.0401,1423.3696Q816.78015,1413.314,812.16943,1393.9125Q807.2914,1396.5847,797.39465,1405.3405Q761.7558,1439.0662,760.7867,1489.1051Q761.02747,1503.4797,765.09534,1520.2822Q769.116,1533.0715,775.1057,1544.6125Q813.6226,1547.2797,823.24426,1583.2749Q834.92535,1579.1788,846.5478,1582.7227Q858.93024,1585.3278,868.20856,1603.0Q873.9412,1603.3789,878.57886,1603.1846Q911.3812,1570.5483,933.8843,1533.2051Q945.1358,1514.5332,953.81274,1494.6847Q962.48944,1474.836,968.5914,1453.8109L974.04956,1432.4915Q944.25684,1381.0476,879.8659,1375.0753 Z"/>
</g>
<g style="fill:rgb(0,0,0); fill-opacity:0.99607843; stroke-linejoin: miter">
<path d="M810.3577,1266.3923C810.3244,1266.3923,810.2919,1266.4078,810.2711,1266.4363C810.2406,1266.4781,810.24426,1266.5358,810.2799,1266.5734L821.9986,1278.926C822.5387,1279.4954,823.056,1280.0787,823.5566,1280.6829L823.5566,1280.6827L834.8942,1294.3678L834.8949,1294.3687L834.89813,1294.3728C835.3947,1294.9722,835.8781,1295.5973,836.3331,1296.2284L844.62933,1307.7366C844.6499,1307.7651,844.68256,1307.781,844.7163,1307.781C844.72437,1307.781,844.7324,1307.7802,844.7404,1307.7783L844.73627,1307.7783C853.0938,1306.3973,861.6374,1305.5804,870.3348,1305.3684L870.3442,1305.3678L870.35284,1305.3668C870.3954,1305.362,870.431,1305.3324,870.4435,1305.2914C870.45593,1305.2504,870.4427,1305.2058,870.41,1305.1782L867.8309,1303.0023L867.86304,1303.0717L867.8256,1302.9972L850.7328,1290.3184L850.72723,1290.3146L832.87415,1278.736L832.9154,1278.8119L832.8684,1278.7314L814.32153,1268.2952L814.3679,1268.3746L814.31555,1268.2911L810.40436,1266.403C810.3894,1266.3958,810.3735,1266.3923,810.3577,1266.3923 Z"/>
</g>
<g style="fill:rgb(0,0,0); fill-opacity:0.99607843; stroke-linejoin: miter">
<path d="M465.02844,420.84583L465.02844,420.84583L465.02844,420.84583L465.02844,420.84583L465.02844,420.84583L465.02844,420.84583L465.02844,420.84583L465.02844,420.84583L465.02844,420.84583L465.02844,420.84583 M461.4623,490.864L461.4623,490.864L461.4623,490.864L461.4623,490.864L461.4623,490.864L461.4623,490.864L461.4623,490.864L461.4623,490.864L461.4623,490.864 Z"/>
</g>
<g style="fill:rgb(0,0,0); fill-opacity:0.99607843; stroke-linejoin: miter">
<path d="M760.1509,1515.0107L759.9072,1515.0127Q752.3431,1514.9506,743.8263,1517.3175Q741.17554,1518.0824,738.6702,1519.085Q737.3268,1519.4376,731.4805,1522.6274Q726.77716,1524.9618,718.0834,1532.8885Q713.2947,1537.6129,709.41846,1543.3293Q726.3996,1537.575,745.79205,1538.4333Q751.9081,1538.7542,758.3237,1539.9175Q763.258,1540.9562,765.62665,1541.5314Q774.0155,1543.9579,775.8682,1544.8994Q784.1687,1545.0054,790.0531,1546.9384Q799.2403,1549.5238,808.0642,1557.0248Q816.5203,1563.9617,821.6671,1577.5928Q821.736,1574.611,817.85114,1561.4292Q816.0505,1556.2576,813.54504,1551.3735Q808.53394,1541.6055,800.70355,1532.9894Q797.01807,1529.1025,792.56104,1525.9159Q789.43536,1523.3291,780.2126,1519.0436Q777.09906,1517.6914,771.683,1516.3751Q768.3071,1515.4048,760.1509,1515.0107 Z"/>
</g>
<g style="fill:rgb(0,0,0); fill-opacity:0.99607843; stroke-linejoin: miter">
<path d="M693.9716,1600.5223L694.26404,1604.9357Q696.45496,1627.0956,706.47076,1643.2001Q716.1057,1659.2185,732.45953,1667.5466Q749.06525,1675.4354,765.94946,1672.6377Q763.7208,1665.7618,764.1258,1659.3413L764.9123,1653.7178L768.12805,1643.8102Q768.6157,1641.7875,768.76855,1640.2661Q762.8247,1639.1489,757.6751,1637.0308Q752.5256,1634.9125,748.1701,1631.793L744.01337,1628.4232Q736.0969,1621.1829,731.3575,1609.9379Q709.7958,1616.3738,693.9716,1600.5223 Z"/>
</g>
<g style="fill:rgb(0,0,0); fill-opacity:1.0; stroke-linejoin: miter">
<path d="M874.9223,1305.204L850.39886,1306.825L826.8563,1311.549L804.50275,1319.1687L783.5457,1329.476L764.19324,1342.2638L746.6525,1357.3231L731.1318,1374.4473L717.83875,1393.4282L706.981,1414.0581L698.76636,1436.1292L693.4025,1459.4337L691.0974,1483.764Q724.5596,1473.2317,761.6262,1478.4117Q763.0117,1463.9176,767.7762,1450.6951L773.27216,1437.9055Q779.55597,1425.4907,788.538,1415.0325Q816.39215,1382.7471,860.3517,1376.2373L874.92236,1375.313Q885.5463,1375.3285,895.6338,1377.1937L905.5459,1379.4816Q915.30304,1382.2108,924.2745,1386.5432Q929.37665,1387.833,949.00146,1402.7257Q964.04266,1415.6527,973.9352,1432.9836Q977.5819,1419.8258,980.8103,1392.5499L982.48096,1368.6274L982.14417,1339.6808Q935.90186,1306.1676,874.9223,1305.204"/>
</g>
<g style="fill:rgb(0,0,0); fill-opacity:1.0; stroke-linejoin: miter">
<path d="M738.4714,1546.7893L730.867,1547.0895Q727.90814,1547.1498,719.1623,1548.7943L715.8625,1549.5564Q710.548,1551.2078,705.39703,1552.6012Q703.24976,1553.1606,702.4773,1553.162L707.6948,1565.7626Q709.45374,1569.6779,713.5251,1577.3284Q722.93176,1593.6963,728.9084,1600.9232L728.2577,1594.6965L728.35004,1589.2894L729.03845,1584.0112L730.294,1578.9004L732.0883,1573.997L734.39185,1569.3392Q737.90393,1563.1533,742.8219,1558.4023Q745.281,1556.0267,748.0915,1554.0099Q750.90204,1551.993,754.06415,1550.3347L757.314,1548.7661Q748.0991,1546.8617,738.4714,1546.7893 Z"/>
</g>
<g style="fill:rgb(0,0,0); fill-opacity:1.0; stroke-linejoin: miter">
</g>
<g style="fill:rgb(0,0,0); fill-opacity:1.0; stroke-linejoin: miter">
</g>
<g style="fill:rgb(0,0,0); fill-opacity:1.0; stroke-linejoin: miter">
<path d="M823.16956,1602.5962L821.9492,1607.2766Q818.9873,1616.5492,812.7557,1623.9077Q809.662,1627.5562,805.8853,1630.5428L801.9602,1633.3334Q797.8756,1635.943,793.24207,1637.707L788.4938,1639.2291Q780.1199,1641.5245,770.49146,1640.5044Q777.3325,1645.2319,784.5934,1649.3276Q797.44415,1656.2783,803.4016,1658.5802L822.134,1647.6589L830.6305,1641.8818Q831.4601,1634.371,828.6085,1619.9427Q828.55054,1618.0133,825.643,1608.9407Q824.2539,1605.0135,823.16956,1602.5962 Z"/>
</g>
<g style="fill:rgb(0,0,0); fill-opacity:1.0; stroke-linejoin: miter">
</g>
<g style="fill:rgb(0,0,0); fill-opacity:0.99607843; stroke-linejoin: miter">
<path d="M220.87863,325.39703L220.87863,325.39703L220.87863,325.39703L220.87863,325.39703L220.87863,325.39703L220.87863,325.39703L220.87863,325.39703L220.87863,325.39703L220.87863,325.39703L220.87863,325.39703 M220.87866,395.50598L220.87866,395.50598L220.87866,395.50598L220.87866,395.50598L220.87866,395.50598L220.87866,395.50598L220.87866,395.50598L220.87866,395.50598L220.87866,395.50598 Z"/>
</g>
<g style="fill:rgb(0,0,0); fill-opacity:1.0; stroke-linejoin: miter">
<path d="M648.20624,1159.9008C647.5448,1159.9008,646.88354,1159.9194,646.2232,1159.9568L622.4627,1161.3018C621.72003,1161.3438,620.9788,1161.4094,620.24023,1161.4987L596.61346,1164.3524C595.875,1164.4417,595.13947,1164.5543,594.40814,1164.6903L571.01074,1169.0413C570.27936,1169.1772,569.5526,1169.3364,568.83136,1169.5187L545.7581,1175.3491C545.03687,1175.5314,544.32166,1175.7366,543.61346,1175.9644L520.9579,1183.2509C520.2497,1183.4786,519.549,1183.7288,518.85675,1184.0012L496.71057,1192.7141C496.01837,1192.9865,495.33502,1193.2808,494.6615,1193.5966L473.11444,1203.7007C455.5859,1211.9204,448.03958,1232.7933,456.25922,1250.3219C462.2226,1263.0388,474.8461,1270.5016,488.02063,1270.5016C493.0053,1270.5016,498.06888,1269.4333,502.88043,1267.177L523.41675,1257.547L523.41675,1257.547L543.4857,1249.6512L543.4857,1249.6512L564.01746,1243.0479L564.01746,1243.0479L584.9266,1237.7643L584.9266,1237.7643L606.1283,1233.8217L606.1283,1233.8217L627.53937,1231.2355L627.53937,1231.2355L649.07025,1230.0167L649.07025,1230.0167L670.6357,1230.1702L670.6357,1230.1702L692.14905,1231.6952L692.14905,1231.6952L713.52106,1234.5856L713.52106,1234.5856L734.6724,1238.831L734.6724,1238.831L755.225,1244.3275L755.225,1244.3275L775.39813,1251.1055L775.39813,1251.1055L795.1046,1259.1359L795.1046,1259.1359L814.2689,1268.3877L814.2689,1268.3877L832.8158,1278.825L832.8158,1278.825L850.6689,1290.4045L867.7617,1303.0834L867.7617,1303.0834L884.02527,1316.8104L884.02527,1316.8104L899.3936,1331.53L913.80725,1347.1847L913.80725,1347.1847L927.9047,1364.5706C934.8324,1373.1141,944.9498,1377.548,955.1541,1377.548C962.9105,1377.548,970.71704,1374.9863,977.21106,1369.7206C979.1852,1368.1199,980.93994,1366.3488,982.4712,1364.4457L982.481,1364.4457L982.4813,1344.6487L980.8112,1320.7269L980.4338,1318.0375L967.5704,1302.1735C967.10803,1301.6033,966.62787,1301.0479,966.1306,1300.5078L950.2242,1283.2317C949.7269,1282.6917,949.21295,1282.1674,948.68286,1281.6595L931.7232,1265.4159C931.1931,1264.9081,930.64716,1264.4172,930.0862,1263.9437L912.1403,1248.7968C911.5794,1248.3234,911.0037,1247.8677,910.4142,1247.4304L891.55286,1233.4398C890.9633,1233.0024,890.36017,1232.5839,889.7443,1232.1844L870.042,1219.4054C869.42615,1219.0059,868.7979,1218.626,868.1582,1218.2659L847.69257,1206.7489C847.05286,1206.3888,846.40204,1206.0491,845.74097,1205.73L824.5927,1195.5204C823.9317,1195.2013,823.2608,1194.903,822.58105,1194.626L800.83356,1185.764C800.1538,1185.487,799.46545,1185.2314,798.76965,1184.9977L776.50885,1177.5183C775.81305,1177.2845,775.11005,1177.0726,774.40094,1176.883L751.71454,1170.8158C751.0007,1170.6249,750.2809,1170.4567,749.5564,1170.3113L726.2232,1165.6278C725.4939,1165.4814,724.7601,1165.3583,724.0229,1165.2585L700.4391,1162.0691C699.7019,1161.9694,698.96173,1161.8932,698.2197,1161.8406L674.4808,1160.1578C673.7388,1160.1052,672.99524,1160.0763,672.25146,1160.0709L648.4536,1159.9016C648.37115,1159.901,648.2887,1159.9008,648.20624,1159.9008 Z"/>
</g>
<g style="fill:rgb(0,0,0); fill-opacity:0.99607843; stroke-linejoin: miter">
</g>
<g style="fill:rgb(0,0,0); fill-opacity:0.99607843; stroke-linejoin: miter">
</g>
<g style="fill:rgb(0,0,0); fill-opacity:0.99607843; stroke-linejoin: miter">
</g>
<g style="fill:rgb(0,0,0); fill-opacity:0.99607843; stroke-linejoin: miter">
</g>
<g style="fill:rgb(0,0,0); fill-opacity:0.99607843; stroke-linejoin: miter">
<path d="M372.10312,1414.0164L369.4603,1414.2157Q337.0439,1424.27,341.50476,1457.8925Q349.60156,1481.6084,383.72516,1529.5919Q404.42114,1556.4335,431.20947,1580.3334Q453.79474,1599.7661,478.0566,1614.8804L502.73764,1628.9149Q527.8378,1641.87,554.61475,1650.5068Q581.3916,1659.1434,609.845,1663.4619L638.71765,1666.7007L668.4286,1667.7803L685.69556,1666.9747Q748.1261,1662.687,798.44006,1641.1729Q810.3765,1636.9595,820.84937,1622.2969Q825.46826,1613.5386,823.1357,1602.8478Q819.6708,1618.8378,805.8103,1630.6018Q790.7269,1642.0918,771.73584,1640.648Q755.54724,1639.6217,741.08984,1625.5602Q733.3672,1615.8036,732.15466,1612.2283Q727.79395,1601.6003,728.2966,1590.1104Q686.68036,1600.293,640.5675,1596.7441Q604.51587,1592.7698,589.5845,1587.7919Q569.4942,1582.3007,549.8887,1573.7534Q497.7648,1548.9998,468.4222,1519.6945Q457.21005,1509.3527,431.94745,1477.3857Q428.90277,1474.0547,401.2972,1425.236Q389.57333,1413.3691,372.10312,1414.0164 Z"/>
</g>
<g style="fill:rgb(0,0,0); fill-opacity:1.0; stroke-linejoin: miter">
<path d="M605.1878,1178.9835C605.06604,1178.9835,604.9442,1178.9843,604.82245,1178.9855L586.4131,1179.1766C585.59955,1179.185,584.78656,1179.2217,583.9756,1179.2867L565.6241,1180.7579C564.8133,1180.823,564.005,1180.9161,563.20074,1181.0374L544.9959,1183.7812C544.1915,1183.9025,543.39154,1184.0518,542.5975,1184.2286L524.6277,1188.2322C523.8337,1188.409,523.0461,1188.6136,522.2663,1188.8453L504.61847,1194.089C503.83868,1194.3207,503.0672,1194.5796,502.30542,1194.8649L485.06506,1201.3235C466.9354,1208.1151,457.74414,1228.3179,464.53583,1246.4475C469.80975,1260.5258,483.17056,1269.2141,497.3678,1269.2141C501.4535,1269.2141,505.60846,1268.4945,509.6599,1266.9768L525.7567,1260.9465L525.7567,1260.9465L541.064,1256.3983L541.064,1256.3983L556.6535,1252.925L572.4432,1250.5452L572.4432,1250.5452L588.361,1249.269L588.361,1249.269L604.3295,1249.1034L604.3295,1249.1034L620.2714,1250.0486L620.2714,1250.0486L636.10645,1252.1002L636.10645,1252.1002L651.76385,1255.2488L667.16425,1259.4789L667.16425,1259.4789L682.2282,1264.7682L682.2282,1264.7682L696.91364,1271.1035L696.91364,1271.1035L710.5993,1278.1537L710.5993,1278.1537L723.8013,1286.1195L723.8013,1286.1195L736.4382,1294.9537L748.45197,1304.6156L759.79175,1315.0642L759.79175,1315.0642L770.40216,1326.2485L780.23944,1338.1226L780.23944,1338.1226L789.2556,1350.6283L797.41235,1363.7128L797.41235,1363.7128L804.6721,1377.3157L811.0017,1391.3748L816.7832,1406.9314C822.0315,1421.0533,835.41534,1429.7838,849.6464,1429.7838C853.7029,1429.7838,857.8281,1429.0745,861.85345,1427.5785C880.0008,1420.8342,889.2448,1400.6556,882.50055,1382.5082L876.3084,1365.8466C876.0348,1365.1104,875.7366,1364.3835,875.4141,1363.6674L868.117,1347.4592C867.7946,1346.7432,867.44824,1346.0381,867.0784,1345.3452L858.70935,1329.6637C858.33954,1328.9708,857.9466,1328.2905,857.5311,1327.624L848.12775,1312.54C847.7123,1311.8734,847.2745,1311.2212,846.8152,1310.5841L836.4201,1296.1656C835.96075,1295.5286,835.48016,1294.907,834.97906,1294.3021L823.63916,1280.6144C823.1381,1280.0096,822.6169,1279.4219,822.0764,1278.8522L809.84283,1265.9568C809.3023,1265.387,808.7428,1264.8356,808.1652,1264.3033L795.09326,1252.2587C794.51575,1251.7264,793.9205,1251.2139,793.3085,1250.7217L779.45715,1239.582C778.8451,1239.0898,778.2167,1238.6182,777.57294,1238.1682L763.0048,1227.9839C762.36115,1227.5339,761.7025,1227.1057,761.0301,1226.7001L745.81085,1217.5171C745.13837,1217.1113,744.45245,1216.7283,743.7542,1216.3685L727.95264,1208.2284C727.24194,1207.8623,726.519,1207.5206,725.785,1207.204L708.88055,1199.9114C708.13367,1199.5891,707.37573,1199.2931,706.6082,1199.0236L689.2375,1192.9243C688.47,1192.6548,687.69324,1192.4121,686.9088,1192.1967L669.15594,1187.3203C668.37146,1187.1049,667.5798,1186.9169,666.7822,1186.7565L648.73315,1183.1268C647.93567,1182.9664,647.13293,1182.8339,646.32623,1182.7294L628.0685,1180.3639C627.26166,1180.2594,626.4515,1180.183,625.63934,1180.1349L607.26117,1179.0452C606.5708,1179.0042,605.8794,1178.9835,605.1878,1178.9835 Z"/>
</g>
<g style="fill:rgb(0,0,0); fill-opacity:0.99607843; stroke-linejoin: miter">
<path d="M472.26758,1457.0972L472.26758,1457.0972L472.41718,1464.6168L472.40356,1464.1136L472.66113,1471.6304L472.64026,1471.1272L473.00577,1478.6394L472.97772,1478.137L473.45105,1485.6432L473.41577,1485.1409L473.99683,1492.6395L473.9545,1492.1396L474.6383,1499.5795L474.58896,1499.0818L475.37885,1506.5111L475.32242,1506.0143L476.21817,1513.4316L476.15466,1512.9355L477.15613,1520.3394L477.0855,1519.8442L478.1925,1527.233C481.06104,1546.3794,467.86523,1564.2261,448.71887,1567.0945C429.57254,1569.963,411.72595,1556.7672,408.85742,1537.6208L408.85742,1537.6208L407.75043,1530.232C407.72574,1530.0673,407.70218,1529.9022,407.67984,1529.7369L407.67984,1529.7369L406.67838,1522.3331C406.65604,1522.168,406.6349,1522.0026,406.61487,1521.8372L406.61487,1521.8372L405.71915,1514.4198C405.69916,1514.2544,405.68036,1514.0887,405.66275,1513.9231L405.66275,1513.9231L404.8729,1506.4937C404.8553,1506.328,404.8388,1506.1619,404.82358,1505.996L404.82358,1505.996L404.13977,1498.5562C404.12445,1498.3895,404.11038,1498.223,404.09747,1498.0563L404.09747,1498.0563L403.51633,1490.5576C403.50336,1490.3901,403.49164,1490.2229,403.48105,1490.0553L403.48105,1490.0553L403.00772,1482.5491C402.9972,1482.3817,402.98782,1482.2141,402.97968,1482.0466L402.97968,1482.0466L402.61414,1474.5344C402.606,1474.3667,402.59903,1474.1991,402.59326,1474.0312L402.59326,1474.0312L402.33572,1466.5145C402.32996,1466.3468,402.32544,1466.1792,402.32208,1466.0114L402.32208,1466.0114L402.1725,1458.4916C401.7874,1439.1354,417.16656,1423.132,436.52277,1422.7468C455.87903,1422.3617,471.8825,1437.7408,472.26758,1457.0972 Z"/>
</g>
<g style="fill:rgb(0,0,0); fill-opacity:0.99607843; stroke-linejoin: miter">
</g>
<g style="fill:rgb(0,0,0); fill-opacity:0.99607843; stroke-linejoin: miter">
<path d="M521.0183,1563.2079L517.84375,1563.3523Q506.95667,1564.8291,499.58514,1570.4912Q487.89346,1581.839,486.6494,1591.1869Q484.90817,1602.2734,488.34717,1611.0704Q493.7792,1621.5658,496.4196,1622.9779Q500.08173,1626.518,505.03888,1629.4851Q551.5285,1654.5524,602.67487,1666.8207Q654.55725,1679.7263,714.9354,1677.5908Q749.9712,1676.0664,783.73413,1668.4552Q797.01624,1663.2769,828.34924,1643.6794L830.63055,1641.8815Q831.0399,1634.7156,830.2294,1629.7914Q828.2673,1613.3241,823.1819,1602.576Q821.81744,1615.558,805.89197,1630.5376Q788.6056,1642.915,770.8788,1640.547Q754.97485,1638.5789,743.4911,1627.9581Q731.4061,1614.7119,730.1189,1606.2229Q676.7278,1611.2968,626.78314,1600.4104Q604.99915,1595.6598,585.06665,1588.615Q568.5014,1583.3268,533.0531,1565.3527Q529.762,1563.6921,521.0183,1563.2079 Z"/>
</g>
<g style="fill:rgb(0,0,0); fill-opacity:0.99607843; stroke-linejoin: miter">
</g>
<g style="fill:rgb(0,0,0); fill-opacity:0.99607843; stroke-linejoin: miter">
<path d="M879.8659,1375.0753L879.8103,1375.0798Q884.9423,1390.5924,884.3938,1392.3492Q884.8851,1395.3287,882.78815,1405.0295Q877.1397,1421.0419,862.422,1427.1185Q845.08093,1433.153,830.0401,1423.3696Q818.7366,1416.6862,812.16943,1393.9125Q804.1526,1399.1938,800.4109,1402.6173Q781.91895,1419.6775,774.78,1434.188Q771.787,1437.7034,764.80237,1459.6252Q762.4741,1468.6476,761.476,1478.3938Q806.5027,1485.4386,839.17957,1511.7571Q859.08203,1527.3918,873.6833,1549.22Q889.7999,1575.9272,892.7344,1588.5929Q955.37695,1518.2542,974.04956,1432.4915Q960.29266,1409.3108,940.16003,1395.3938Q930.0936,1388.4354,918.43335,1383.7926L906.3745,1379.7289Q893.91724,1376.2441,879.8659,1375.0753 Z"/>
</g>
<g style="fill:rgb(0,0,0); fill-opacity:0.99607843; stroke-linejoin: miter">
<path d="M810.3577,1266.3923C810.3244,1266.3923,810.2919,1266.4078,810.2711,1266.4363C810.2406,1266.4781,810.24426,1266.5358,810.2799,1266.5734L821.9986,1278.926C822.5387,1279.4954,823.056,1280.0787,823.5566,1280.6829L823.5566,1280.6827L834.8942,1294.3678L834.8949,1294.3687L834.89813,1294.3728C835.3947,1294.9722,835.8781,1295.5973,836.3331,1296.2284L844.62933,1307.7366C844.6499,1307.7651,844.68256,1307.781,844.7163,1307.781C844.72437,1307.781,844.7324,1307.7802,844.7404,1307.7783L844.73627,1307.7783C853.0938,1306.3973,861.6374,1305.5804,870.3348,1305.3684L870.3442,1305.3678L870.35284,1305.3668C870.3954,1305.362,870.431,1305.3324,870.4435,1305.2914C870.45593,1305.2504,870.4427,1305.2058,870.41,1305.1782L867.8309,1303.0023L867.86304,1303.0717L867.8256,1302.9972L850.7328,1290.3184L850.72723,1290.3146L832.87415,1278.736L832.9154,1278.8119L832.8684,1278.7314L814.32153,1268.2952L814.3679,1268.3746L814.31555,1268.2911L810.40436,1266.403C810.3894,1266.3958,810.3735,1266.3923,810.3577,1266.3923 Z"/>
</g>
<g style="fill:rgb(0,0,0); fill-opacity:0.99607843; stroke-linejoin: miter">
<path d="M465.02844,420.84583L465.02844,420.84583L465.02844,420.84583L465.02844,420.84583L465.02844,420.84583L465.02844,420.84583L465.02844,420.84583L465.02844,420.84583L465.02844,420.84583L465.02844,420.84583 M461.4623,490.864L461.4623,490.864L461.4623,490.864L461.4623,490.864L461.4623,490.864L461.4623,490.864L461.4623,490.864L461.4623,490.864L461.4623,490.864 Z"/>
</g>
<g style="fill:rgb(0,0,0); fill-opacity:0.99607843; stroke-linejoin: miter">
</g>
<g style="fill:rgb(0,0,0); fill-opacity:0.99607843; stroke-linejoin: miter">
</g>
<g style="fill:rgb(0,0,0); fill-opacity:0.99607843; stroke-linejoin: miter">
<path d="M738.47144,1546.7893L730.86707,1547.0894Q723.26483,1547.7043,715.86255,1549.5563Q703.4083,1553.3059,703.74774,1552.9429Q689.1951,1583.7788,696.0742,1616.8881Q702.91754,1644.507,718.78973,1658.1483Q734.8574,1672.9102,757.1459,1673.3434Q770.8179,1673.1122,781.6399,1667.6061Q792.46204,1662.0999,799.8935,1654.0912Q817.15704,1635.0685,821.3586,1609.0503Q813.5135,1629.9338,792.1644,1638.1008Q769.91425,1645.5547,749.5444,1632.7477Q744.9088,1629.6471,741.0899,1625.56L737.5233,1621.2615Q734.18506,1616.7338,731.95337,1611.431Q727.42914,1600.0132,728.34845,1589.3119Q731.4953,1560.9929,757.1907,1548.819Q755.61743,1548.1665,746.07465,1547.1158L738.47144,1546.7893 Z"/>
</g>
<g style="fill:rgb(0,0,0); fill-opacity:1.0; stroke-linejoin: miter">
<path d="M645.069,1329.041L645.069,1329.041L645.069,1329.041L645.069,1329.041L645.069,1329.041L645.069,1329.041L645.069,1329.041L645.069,1329.041L645.069,1329.041L645.069,1329.041 M649.7971,1398.9905L649.7971,1398.9905L649.7971,1398.9905L649.7971,1398.9905L649.7971,1398.9905L649.7971,1398.9905L649.7971,1398.9905L649.7971,1398.9905L649.7971,1398.9905 Z"/>
</g>
<g style="fill:rgb(0,0,0); fill-opacity:1.0; stroke-linejoin: miter">
<path d="M684.1449,1440.4137L684.1449,1440.4137L684.1449,1440.4137L684.1449,1440.4137L684.1449,1440.4137L684.1449,1440.4137L684.1449,1440.4137L684.1449,1440.4137L684.1449,1440.4137L684.1449,1440.4137 M684.91235,1452.4362L684.91235,1452.4362L684.91235,1452.4362L684.91235,1452.4362L684.91235,1452.4362L684.91235,1452.4362L684.91235,1452.4362L684.91235,1452.4362L684.91235,1452.4362 Z"/>
</g>
<g style="fill:rgb(0,0,0); fill-opacity:1.0; stroke-linejoin: miter">
<path d="M775.8937,1553.0618C763.61536,1553.0618,751.5674,1559.0106,744.2586,1570.0011C732.65265,1587.4534,737.392,1611.0096,754.8443,1622.6156Q757.1041,1624.1184,759.3706,1625.2532C764.8239,1627.9835,770.62085,1629.277,776.3308,1629.277C790.2442,1629.277,803.6415,1621.5968,810.2944,1608.309C819.23645,1590.4487,812.7671,1568.9031,795.91864,1558.7957L795.9107,1558.7957C789.6913,1554.9203,782.75653,1553.0618,775.8937,1553.0618 Z"/>
</g>
</g>
</svg>
