<?xml version="1.0" encoding="utf-8"?>
<svg xmlns="http://www.w3.org/2000/svg" xmlns:xlink="http://www.w3.org/1999/xlink" version= "1.1" width="1280px" height="1280px" viewBox="0 689 1280 1280">
<g id="layer1">
<g style="fill:rgb(0,0,0); fill-opacity:1.0; stroke-linejoin: miter">
<path d="M507.45746,1135.1486L507.45746,1135.1486L500.56226,1147.2106L501.38165,1145.6771L495.186,1158.1129L495.91653,1156.5353L490.44058,1169.3043L491.0799,1167.6877L486.34152,1180.7483L486.88754,1179.0979L482.90216,1192.4077L483.3531,1190.7288L480.13367,1204.2441L480.4881,1202.5422L478.04514,1216.2195L478.30182,1214.5L476.6433,1228.2943L476.8015,1226.563L475.93283,1240.4294L475.99197,1238.692L475.91595,1252.5854L475.87628,1250.8563L476.5819,1264.59L476.4451,1262.8748L477.92523,1276.5466L477.69177,1274.8419L479.94174,1288.4084L479.61237,1286.7195L482.625,1300.1372L482.20078,1298.4696L485.9664,1311.6958L485.44867,1310.0549L489.95532,1323.0472L489.3457,1321.4381L494.57898,1334.1553L493.87952,1332.5831L499.8227,1344.9844L499.03546,1343.4543L505.66962,1355.5L504.79724,1354.0168L512.10114,1365.6687C521.0342,1379.9196,516.72327,1398.7137,502.47244,1407.6469C488.22162,1416.5798,469.42737,1412.2689,460.49432,1398.0181L460.49432,1398.0181L453.19043,1386.3662C452.88574,1385.8801,452.59485,1385.3855,452.31808,1384.883L452.31808,1384.883L445.68396,1372.8373C445.4072,1372.3347,445.14468,1371.8245,444.89676,1371.3071L444.89676,1371.3071L438.95355,1358.906C438.70563,1358.3885,438.47238,1357.8644,438.25406,1357.3339L438.25406,1357.3339L433.02075,1344.6167C432.80243,1344.0862,432.59915,1343.5496,432.41113,1343.0076L432.41113,1343.0076L427.90448,1330.0151C427.7165,1329.4731,427.54382,1328.9259,427.38675,1328.3741L427.38675,1328.3741L423.6211,1315.148C423.464,1314.5962,423.32254,1314.0402,423.19684,1313.4803L423.19684,1313.4803L420.1842,1300.0626C420.05853,1299.5028,419.94867,1298.9397,419.85483,1298.3737L419.85483,1298.3737L417.60486,1284.8071C417.511,1284.2412,417.43314,1283.6727,417.3714,1283.1023L417.3714,1283.1023L415.89124,1269.4304C415.8295,1268.86,415.78387,1268.2881,415.75446,1267.7151L415.75446,1267.7151L415.04886,1253.9814C415.01926,1253.4055,415.00604,1252.829,415.0092,1252.2523L415.0092,1252.2523L415.0852,1238.3589C415.08838,1237.7793,415.1081,1237.1998,415.14432,1236.6213L415.14432,1236.6213L416.013,1222.7549C416.04922,1222.1764,416.102,1221.5991,416.17117,1221.0237L416.17117,1221.0237L417.82968,1207.2294C417.89886,1206.6538,417.98447,1206.0806,418.08636,1205.5099L418.08636,1205.5099L420.5293,1191.8328C420.63123,1191.2621,420.74942,1190.6946,420.88373,1190.1307L420.88373,1190.1307L424.10315,1176.6152C424.23743,1176.0514,424.38782,1175.4916,424.55408,1174.9363L424.55408,1174.9363L428.53946,1161.6265C428.70575,1161.0713,428.8878,1160.5209,429.08548,1159.9761L429.08548,1159.9761L433.82385,1146.9154C434.0215,1146.3705,434.2347,1145.8314,434.46313,1145.2987L434.46313,1145.2987L439.9391,1132.5297C440.16754,1131.997,440.41113,1131.471,440.6696,1130.9521L440.6696,1130.9521L446.86523,1118.5164C447.12372,1117.9976,447.39694,1117.4863,447.68463,1116.983L447.68463,1116.983L454.57983,1104.9211C462.92688,1090.3193,481.5306,1085.2489,496.1324,1093.5961C510.73413,1101.9431,515.80457,1120.5469,507.45746,1135.1486 Z"/>
</g>
<g style="fill:rgb(0,0,0); fill-opacity:1.0; stroke-linejoin: miter">
<path d="M772.54254,1135.1486L772.54254,1135.1486L779.43774,1147.2106L778.61835,1145.6771L784.81396,1158.1129L784.0835,1156.5353L789.55945,1169.3043L788.9201,1167.6877L793.65845,1180.7483L793.1124,1179.0979L797.09784,1192.4077L796.6469,1190.7288L799.86633,1204.2441L799.5119,1202.5422L801.95483,1216.2195L801.6982,1214.5L803.3567,1228.2943L803.1985,1226.563L804.06714,1240.4294L804.00806,1238.692L804.08405,1252.5854L804.1237,1250.8563L803.4181,1264.59L803.55493,1262.8748L802.07477,1276.5466L802.3082,1274.8419L800.0582,1288.4084L800.38763,1286.7195L797.375,1300.1372L797.7992,1298.4696L794.03357,1311.6958L794.55133,1310.0549L790.0447,1323.0472L790.6543,1321.4381L785.421,1334.1553L786.1205,1332.5831L780.1773,1344.9844L780.96454,1343.4543L774.3304,1355.5L775.20276,1354.0168L767.89886,1365.6687C758.9658,1379.9196,763.27673,1398.7137,777.5276,1407.6469C791.7784,1416.5798,810.57263,1412.2689,819.5057,1398.0181L819.5057,1398.0181L826.8096,1386.3662C827.11426,1385.8801,827.40515,1385.3855,827.6819,1384.883L827.6819,1384.883L834.31604,1372.8373C834.5928,1372.3347,834.85535,1371.8245,835.1033,1371.3071L835.1033,1371.3071L841.04645,1358.906C841.2944,1358.3885,841.5276,1357.8644,841.746,1357.3339L841.746,1357.3339L846.97925,1344.6167C847.1976,1344.0862,847.4009,1343.5496,847.58887,1343.0076L847.58887,1343.0076L852.0955,1330.0151C852.2835,1329.4731,852.4562,1328.9259,852.6133,1328.3741L852.6133,1328.3741L856.3789,1315.148C856.536,1314.5962,856.6775,1314.0402,856.80316,1313.4803L856.80316,1313.4803L859.8158,1300.0626C859.94147,1299.5028,860.05133,1298.9397,860.14514,1298.3737L860.14514,1298.3737L862.39514,1284.8071C862.489,1284.2412,862.5669,1283.6727,862.6286,1283.1023L862.6286,1283.1023L864.10876,1269.4304C864.17053,1268.86,864.2161,1268.2881,864.24554,1267.7151L864.24554,1267.7151L864.9512,1253.9814C864.9807,1253.4055,864.99396,1252.829,864.99084,1252.2523L864.99084,1252.2523L864.9148,1238.3589C864.9116,1237.7793,864.8919,1237.1998,864.8557,1236.6213L864.8557,1236.6213L863.987,1222.7549C863.9508,1222.1764,863.898,1221.5991,863.82886,1221.0237L863.82886,1221.0237L862.1703,1207.2294C862.10114,1206.6538,862.0155,1206.0806,861.91364,1205.5099L861.91364,1205.5099L859.4707,1191.8328C859.3688,1191.2621,859.2506,1190.6946,859.1163,1190.1307L859.1163,1190.1307L855.89685,1176.6152C855.7626,1176.0514,855.6122,1175.4916,855.4459,1174.9363L855.4459,1174.9363L851.4606,1161.6265C851.29425,1161.0713,851.1122,1160.5209,850.91455,1159.9761L850.91455,1159.9761L846.17615,1146.9154C845.9785,1146.3705,845.76526,1145.8314,845.53687,1145.2987L845.53687,1145.2987L840.0609,1132.5297C839.83246,1131.997,839.58887,1131.471,839.33044,1130.9521L839.33044,1130.9521L833.13477,1118.5164C832.8763,1117.9976,832.603,1117.4863,832.31537,1116.983L832.31537,1116.983L825.42017,1104.9211C817.0731,1090.3193,798.46936,1085.2489,783.8676,1093.5961C769.26587,1101.9431,764.19543,1120.5469,772.54254,1135.1486 Z"/>
</g>
<g style="fill:rgb(0,0,0); fill-opacity:1.0; stroke-linejoin: miter">
<path d="M324.9331,983.7952L324.9331,983.7952L324.9331,983.7952L324.9331,983.7952L324.9331,983.7952L324.9331,983.7952L324.9331,983.7952L324.9331,983.7952L324.9331,983.7952L324.9331,983.7952 M322.40936,1044.6506L322.40936,1044.6506L322.40936,1044.6506L322.40936,1044.6506L322.40936,1044.6506L322.40936,1044.6506L322.40936,1044.6506L322.40936,1044.6506L322.40936,1044.6506 Z"/>
</g>
<g style="fill:rgb(0,0,0); fill-opacity:1.0; stroke-linejoin: miter">
<path d="M577.1571,994.25507L577.1571,994.25507L577.1571,994.25507L577.1571,994.25507L577.1571,994.25507L577.1571,994.25507L577.1571,994.25507L577.1571,994.25507L577.1571,994.25507L577.1571,994.25507 M574.6334,1055.1105L574.6334,1055.1105L574.6334,1055.1105L574.6334,1055.1105L574.6334,1055.1105L574.6334,1055.1105L574.6334,1055.1105L574.6334,1055.1105L574.6334,1055.1105 Z"/>
</g>
<g style="fill:rgb(0,0,0); fill-opacity:1.0; stroke-linejoin: miter">
<path d="M508.2107,1134.0428L508.2121,1134.0403L508.1586,1134.1361L508.15717,1134.1387C490.48315,1165.7924,475.55685,1192.986,468.99725,1224.8181L468.99725,1224.8181C462.31436,1257.2483,464.0462,1296.4323,468.6405,1323.4373L468.6405,1323.4373C472.914,1348.5566,479.31427,1361.2996,486.8157,1376.2749C494.3485,1391.313,488.26428,1409.6102,473.22626,1417.1431C458.18826,1424.6758,439.891,1418.5916,432.35822,1403.5536L432.35822,1403.5536C423.91666,1386.7014,414.37372,1367.6161,408.59558,1333.6526L408.59558,1333.6526C403.13818,1301.5745,400.70972,1254.4203,409.34302,1212.5251L409.34302,1212.5251C418.08392,1170.1077,437.89465,1135.0406,454.97766,1104.4454L454.97626,1104.448L455.02972,1104.3522C463.23065,1089.6646,481.78235,1084.407,496.46747,1092.6064C511.1526,1100.806,516.4102,1119.3577,508.2107,1134.0428 Z"/>
</g>
<g style="fill:rgb(0,0,0); fill-opacity:1.0; stroke-linejoin: miter">
<path d="M771.7893,1134.0428L771.7879,1134.0403L771.84143,1134.1361L771.84283,1134.1387C789.51685,1165.7924,804.4431,1192.986,811.00275,1224.8181L811.00275,1224.8181C817.68567,1257.2483,815.9538,1296.4323,811.3595,1323.4373L811.3595,1323.4373C807.086,1348.5566,800.6857,1361.2996,793.1843,1376.2749C785.6515,1391.313,791.7357,1409.6102,806.77374,1417.1431C821.81177,1424.6758,840.109,1418.5916,847.6418,1403.5536L847.6418,1403.5536C856.0834,1386.7014,865.6263,1367.6161,871.4044,1333.6526L871.4044,1333.6526C876.8618,1301.5745,879.2903,1254.4203,870.657,1212.5251L870.657,1212.5251C861.9161,1170.1077,842.10535,1135.0406,825.02234,1104.4454L825.02374,1104.448L824.9703,1104.3522C816.76935,1089.6646,798.21765,1084.407,783.53253,1092.6064C768.8474,1100.806,763.5898,1119.3577,771.7893,1134.0428 Z"/>
</g>
<g style="fill:rgb(0,0,0); fill-opacity:1.0; stroke-linejoin: miter">
<path d="M513.91394,1122.7827L513.91394,1122.7827C511.73282,1134.162,510.7187,1140.4968,511.1283,1145.7236L511.1283,1145.7236C511.5246,1150.7805,513.3911,1156.3567,517.26166,1166.7217C523.1456,1182.478,515.1424,1200.021,499.386,1205.9049C483.62958,1211.789,466.0866,1203.7856,460.2027,1188.0293L460.2027,1188.0293C456.89655,1179.1759,451.5864,1165.5342,450.4068,1150.4823L450.4068,1150.4823C449.24054,1135.6008,452.2514,1120.9364,454.09518,1111.3169C457.26135,1094.7985,473.21896,1083.9742,489.73746,1087.1404C506.25592,1090.3066,517.08014,1106.2642,513.91394,1122.7827 Z"/>
</g>
<g style="fill:rgb(0,0,0); fill-opacity:1.0; stroke-linejoin: miter">
<path d="M766.08606,1122.7827L766.08606,1122.7827C768.2672,1134.162,769.2813,1140.4968,768.8717,1145.7236L768.8717,1145.7236C768.4754,1150.7805,766.6089,1156.3567,762.73834,1166.7217C756.8544,1182.478,764.8576,1200.021,780.614,1205.9049C796.3704,1211.789,813.9134,1203.7856,819.7973,1188.0293L819.7973,1188.0293C823.10345,1179.1759,828.4136,1165.5342,829.5932,1150.4823L829.5932,1150.4823C830.75946,1135.6008,827.7486,1120.9364,825.9048,1111.3169C822.73865,1094.7985,806.781,1083.9742,790.2626,1087.1404C773.7441,1090.3066,762.91986,1106.2642,766.08606,1122.7827 Z"/>
</g>
<g style="fill:rgb(0,0,0); fill-opacity:1.0; stroke-linejoin: miter">
<path d="M501.9918,1156.9287L501.9918,1156.9287C499.87723,1160.2068,498.00543,1162.5872,495.145,1173.3279L495.145,1173.3279C491.61066,1186.5989,488.14874,1206.9246,488.61105,1219.2567L488.61105,1219.2567C488.94745,1228.2301,491.26746,1232.5784,496.38507,1241.5593C504.712,1256.1726,499.61597,1274.7693,485.00275,1283.0963C470.38953,1291.4233,451.7928,1286.3273,443.46582,1271.714L443.46582,1271.714C437.46347,1261.1803,428.66364,1246.014,427.74612,1221.5383L427.74612,1221.5383C426.95453,1200.4214,432.1048,1173.3638,436.2888,1157.6533L436.2888,1157.6533C441.14667,1139.4126,446.09924,1131.2137,450.80914,1123.9124C459.9264,1109.7786,478.775,1105.712,492.9087,1114.8292C507.0424,1123.9464,511.109,1142.795,501.9918,1156.9287 Z"/>
</g>
<g style="fill:rgb(0,0,0); fill-opacity:1.0; stroke-linejoin: miter">
<path d="M778.0082,1156.9287L778.0082,1156.9287C780.1228,1160.2068,781.99457,1162.5872,784.855,1173.3279L784.855,1173.3279C788.38934,1186.5989,791.85126,1206.9246,791.3889,1219.2567L791.3889,1219.2567C791.05255,1228.2301,788.73254,1232.5784,783.6149,1241.5593C775.28796,1256.1726,780.38403,1274.7693,794.99725,1283.0963C809.6105,1291.4233,828.2072,1286.3273,836.5342,1271.714L836.5342,1271.714C842.5365,1261.1803,851.33636,1246.014,852.2539,1221.5383L852.2539,1221.5383C853.0455,1200.4214,847.8952,1173.3638,843.7112,1157.6533L843.7112,1157.6533C838.85333,1139.4126,833.90076,1131.2137,829.19086,1123.9124C820.0736,1109.7786,801.225,1105.712,787.0913,1114.8292C772.95764,1123.9464,768.891,1142.795,778.0082,1156.9287 Z"/>
</g>
<g style="fill:rgb(0,0,0); fill-opacity:1.0; stroke-linejoin: miter">
<path d="M503.50385,1409.0819L503.49878,1409.0852L503.46448,1409.107L503.46942,1409.1039C500.53455,1410.9736,494.6399,1414.8359,485.9765,1417.3508L485.97644,1417.3508C478.88672,1419.409,470.47705,1420.3253,465.77948,1420.8878C449.0796,1422.8875,433.92056,1410.9707,431.92084,1394.2708C429.9211,1377.5709,441.83795,1362.4119,458.53784,1360.4121L458.53784,1360.4121C465.00476,1359.6377,467.75797,1359.2175,468.9961,1358.858L468.996,1358.858C468.62546,1358.9657,468.20984,1359.3491,470.74304,1357.7354L470.748,1357.7322L470.78235,1357.7103C484.9623,1348.6763,503.78763,1352.8495,512.8248,1367.0344C521.86194,1381.2195,517.68884,1400.0448,503.50385,1409.0819 Z"/>
</g>
<g style="fill:rgb(0,0,0); fill-opacity:1.0; stroke-linejoin: miter">
<path d="M776.49615,1409.0819L776.5012,1409.0852L776.5355,1409.107L776.5306,1409.1039C779.46545,1410.9736,785.3601,1414.8359,794.0235,1417.3508L794.02356,1417.3508C801.1133,1419.409,809.52295,1420.3253,814.2205,1420.8878C830.9204,1422.8875,846.07947,1410.9707,848.07916,1394.2708C850.07886,1377.5709,838.16205,1362.4119,821.46216,1360.4121L821.46216,1360.4121C814.99524,1359.6377,812.24207,1359.2175,811.0039,1358.858L811.004,1358.858C811.3745,1358.9657,811.79016,1359.3491,809.25696,1357.7354L809.252,1357.7322L809.21765,1357.7103C795.0377,1348.6763,776.2124,1352.8495,767.1752,1367.0344C758.13806,1381.2195,762.31116,1400.0448,776.49615,1409.0819 Z"/>
</g>
<g style="fill:rgb(0,0,0); fill-opacity:1.0; stroke-linejoin: miter">
<path d="M621.70776,1398.4214C623.80707,1398.5939,625.9415,1398.7261,628.1129,1398.8218C631.3063,1398.9625,634.52405,1399.024,637.7882,1399.024C638.522,1399.024,639.2581,1399.0209,639.9968,1399.0149L640.0032,1399.0159C640.7419,1399.0209,641.478,1399.024,642.2118,1399.024C645.47595,1399.024,648.6937,1398.9625,651.8871,1398.8218C654.0583,1398.7261,656.19257,1398.594,658.2917,1398.4214L658.2851,1398.4224C651.9407,1398.7347,645.8879,1398.9669,640.0,1399.0149L640.0,1399.0159C634.1118,1398.9669,628.0587,1398.7347,621.714,1398.4214 Z"/>
</g>
<g style="fill:rgb(0,0,0); fill-opacity:1.0; stroke-linejoin: miter">
<path d="M598.9899,1456.8895C601.7284,1457.8843,604.65704,1458.4998,607.7162,1458.6692C611.0111,1458.8518,614.3997,1459.0408,617.8619,1459.2152L617.8619,1459.2162C615.14545,1459.0063,612.4069,1458.7448,609.65155,1458.4216L609.6516,1458.4226C606.0588,1458.0002,602.4937,1457.4806,598.9959,1456.8895 Z"/>
</g>
<g style="fill:rgb(0,0,0); fill-opacity:1.0; stroke-linejoin: miter">
<path d="M617.8736,1459.2162C620.4132,1459.4113,622.9335,1459.5603,625.4302,1459.6704C629.55786,1459.8524,633.6788,1459.929,637.7655,1459.929C638.51044,1459.929,639.2543,1459.9265,639.9968,1459.9215L640.0032,1459.9225C640.7457,1459.9265,641.48956,1459.929,642.2345,1459.929C646.3212,1459.929,650.44214,1459.8524,654.5698,1459.6704C657.0663,1459.5603,659.58624,1459.4114,662.12555,1459.2162L662.1189,1459.2172C654.99817,1459.5748,647.56665,1459.8713,640.0,1459.9215L640.0,1459.9225C632.43286,1459.8713,625.001,1459.5748,617.8798,1459.2162 Z"/>
</g>
<g style="fill:rgb(0,0,0); fill-opacity:1.0; stroke-linejoin: miter">
<path d="M556.1401,1383.8157C542.1009,1383.8157,533.19116,1391.7291,529.105,1395.8882C528.37946,1396.6265,527.70874,1397.3468,527.104,1398.0135L527.1035,1398.014C525.6383,1399.6294,524.0461,1401.5057,522.7474,1403.0322L522.74744,1403.0332C520.90564,1405.1968,519.1149,1407.2983,517.1587,1409.4551L517.1586,1409.456C512.83356,1414.2234,508.76593,1418.0422,505.01727,1420.502L505.01733,1420.5029C497.92065,1425.1584,488.34866,1427.6201,471.76917,1431.2495C461.14688,1433.5748,453.04364,1441.1827,449.61404,1450.7106L449.61856,1450.7115C465.56882,1454.0023,477.56,1468.127,477.56,1485.0521L477.56,1491.4513L477.56476,1491.4523C477.7936,1491.4565,478.02286,1491.4591,478.25247,1491.4591C480.40982,1491.4591,482.60028,1491.2285,484.79422,1490.7482C499.02103,1487.6338,520.2566,1483.3511,538.4309,1471.4261L538.43097,1471.4271C548.5188,1464.807,556.6269,1456.5997,562.2724,1450.3757L562.27234,1450.3767C562.85406,1449.7344,563.42096,1449.1012,563.97034,1448.4813L563.976,1448.4823C573.1776,1451.3138,585.5872,1454.6234,598.98474,1456.8877L598.98474,1456.8887C586.69293,1452.4202,578.23285,1440.3097,578.99365,1426.5774C579.8923,1410.3574,593.32635,1397.8073,609.3738,1397.8073C609.9412,1397.8073,610.5119,1397.823,611.08545,1397.8547C614.7226,1398.0563,618.25354,1398.2504,621.6984,1398.4205L621.6984,1398.4215C620.02563,1398.283,618.37524,1398.1196,616.7462,1397.9286L616.7461,1397.9296C600.81476,1396.0602,584.49274,1391.2782,575.78613,1388.2853L575.7858,1388.2852C574.9529,1387.9989,574.1776,1387.7249,573.3523,1387.4329L573.3524,1387.4338C572.6912,1387.199,571.92365,1386.9272,571.17773,1386.6709L571.1764,1386.6704C570.3673,1386.3923,569.3805,1386.0618,568.32385,1385.742L568.3224,1385.7415C566.29016,1385.1265,562.46436,1384.0579,557.81055,1383.8527C557.24585,1383.8278,556.689,1383.8157,556.1401,1383.8157 Z"/>
</g>
<g style="fill:rgb(0,0,0); fill-opacity:1.0; stroke-linejoin: miter">
<path d="M723.8599,1383.8157C723.311,1383.8157,722.75415,1383.8278,722.18945,1383.8527C717.53564,1384.0579,713.70984,1385.1265,711.6776,1385.7415L711.67615,1385.742C710.6195,1386.0618,709.6327,1386.3923,708.8236,1386.6704L708.82227,1386.6709C708.07635,1386.9272,707.3088,1387.199,706.6476,1387.4329L706.6477,1387.4338C705.8224,1387.7249,705.0471,1387.9989,704.2142,1388.2852L704.21387,1388.2853C695.50726,1391.2782,679.18524,1396.0602,663.2539,1397.9286L663.2538,1397.9296C661.62476,1398.1196,659.97437,1398.283,658.3016,1398.4205L658.3016,1398.4215C661.74646,1398.2504,665.2774,1398.0563,668.91455,1397.8547C669.4881,1397.823,670.0588,1397.8073,670.6262,1397.8073C686.67365,1397.8073,700.1077,1410.3574,701.00635,1426.5774C701.76715,1440.3097,693.30707,1452.4202,681.01526,1456.8877L681.01526,1456.8887C694.41223,1454.6234,706.8213,1451.3141,716.0228,1448.4817L716.02997,1448.4827C716.5793,1449.1014,717.14606,1449.7345,717.72766,1450.3757L717.7276,1450.3767C723.3731,1456.5997,731.4812,1464.807,741.56903,1471.4261L741.5691,1471.4271C759.7434,1483.3511,780.979,1487.6338,795.2058,1490.7482C797.3997,1491.2285,799.5902,1491.4591,801.74756,1491.4591C801.9761,1491.4591,802.2042,1491.4565,802.432,1491.4514L802.44,1491.4524L802.44,1485.0521C802.44,1468.1282,814.4294,1454.0045,830.3779,1450.7113L830.3862,1450.7123C826.9568,1441.1831,818.8534,1433.575,808.23083,1431.2495C791.65137,1427.6201,782.07935,1425.1584,774.98267,1420.502L774.9827,1420.5029C771.2341,1418.0422,767.16644,1414.2234,762.8414,1409.4551L762.8413,1409.456C760.8851,1407.2983,759.09436,1405.1968,757.25256,1403.0322L757.2526,1403.0332C755.9539,1401.5057,754.3617,1399.6294,752.8965,1398.014L752.896,1398.0135C752.29126,1397.3468,751.62054,1396.6265,750.895,1395.8882C746.80884,1391.7291,737.8991,1383.8157,723.8599,1383.8157 Z"/>
</g>
<g style="fill:rgb(0,0,0); fill-opacity:1.0; stroke-linejoin: miter">
<path d="M681.00256,1456.8898C677.50525,1457.4807,673.94073,1458.0004,670.3484,1458.4216L670.34845,1458.4226C667.5931,1458.7448,664.85455,1459.0063,662.1381,1459.2152L662.1381,1459.2162C665.6003,1459.0408,668.9889,1458.8518,672.2838,1458.6692C675.3427,1458.4998,678.27106,1457.8844,681.00934,1456.8898 Z"/>
</g>
<g style="fill:rgb(0,0,0); fill-opacity:1.0; stroke-linejoin: miter">
<path d="M608.523,1559.515C618.3626,1560.6316,627.22,1561.0278,635.56274,1561.0278C637.05396,1561.0278,638.5304,1561.0154,639.9968,1560.9918L640.0032,1560.9918C641.4696,1561.0154,642.94604,1561.0278,644.43726,1561.0278C652.77997,1561.0278,661.63727,1560.6316,671.4768,1559.515L671.4835,1559.515C686.85333,1560.0898,699.62256,1572.1906,700.6915,1587.8784C701.83496,1604.6587,689.1588,1619.1887,672.3785,1620.3322C662.47516,1621.007,651.7066,1621.7489,640.0,1621.9055L640.0,1621.9055C628.2934,1621.7489,617.52484,1621.007,607.6215,1620.3322C590.8412,1619.1887,578.16504,1604.6587,579.3085,1587.8784C580.3775,1572.1904,593.147,1560.0896,608.5169,1559.515 Z M565.55206,1417.2119C561.60565,1417.2119,557.59406,1417.9838,553.7295,1419.6139L500.3581,1442.1263C494.64194,1444.5375,489.79852,1448.6368,486.47595,1453.876C483.3572,1458.7936,479.25476,1464.9865,475.0772,1472.079L475.08194,1472.079C476.68082,1476.0917,477.56,1480.4692,477.56,1485.0521L477.56,1511.7141C477.56,1525.5879,469.5028,1537.5798,457.81238,1543.266L457.81696,1543.266C459.14798,1548.685,461.25006,1553.9854,464.19522,1559.053L464.19522,1559.053C464.89743,1560.2614,465.64258,1561.4475,466.42667,1562.607C488.80176,1595.6951,548.2212,1611.0767,580.74066,1616.9478L580.7406,1616.9478C601.67017,1620.7264,619.40686,1621.9355,635.56274,1621.9355C637.05554,1621.9355,638.5335,1621.9252,639.9968,1621.9055L640.0032,1621.9055C641.4665,1621.9252,642.94446,1621.9355,644.43726,1621.9355C660.59314,1621.9355,678.32983,1620.7264,699.2594,1616.9478L699.25934,1616.9478C731.7788,1611.0767,791.19824,1595.6951,813.57336,1562.607C814.3574,1561.4475,815.10254,1560.2614,815.8048,1559.053L815.8048,1559.053C818.74963,1553.9858,820.8516,1548.686,822.1826,1543.2676L822.19086,1543.2676C810.49866,1537.582,802.44,1525.5892,802.44,1511.7141L802.44,1485.0521C802.44,1480.4705,803.31866,1476.0941,804.91675,1472.0823L804.92474,1472.0823C800.7465,1464.9884,796.6433,1458.7944,793.52405,1453.876C790.2015,1448.6368,785.35803,1444.5375,779.6419,1442.1263L726.2705,1419.6139C722.40594,1417.9838,718.39435,1417.2119,714.44794,1417.2119C702.5692,1417.2119,691.28156,1424.2053,686.37494,1435.8378C679.83813,1451.3347,687.10187,1469.1967,702.5988,1475.7334L747.1007,1494.5046L747.0932,1494.5046C760.1159,1515.6915,763.6504,1524.6206,763.0569,1528.5897L763.04926,1528.5897C757.1167,1537.1002,725.77673,1550.2681,688.438,1557.0092C682.4458,1558.091,676.81757,1558.9089,671.4785,1559.5149L671.4785,1559.5149C671.10016,1559.5007,670.7203,1559.4937,670.3389,1559.4937C669.64307,1559.4937,668.94244,1559.5173,668.23785,1559.5653C658.4115,1560.235,649.41235,1560.8406,640.0,1560.9917L640.0,1560.9917C630.58765,1560.8406,621.5885,1560.235,611.76215,1559.5653C611.05756,1559.5173,610.35693,1559.4937,609.6611,1559.4937C609.2797,1559.4937,608.89984,1559.5007,608.5215,1559.5149L608.5215,1559.5149C603.18243,1558.9089,597.5542,1558.091,591.562,1557.0092C554.2167,1550.2668,522.87225,1537.0957,516.9476,1528.5852L516.94244,1528.5852C516.35223,1524.6138,519.88916,1515.6832,532.90753,1494.5034L532.9022,1494.5034L577.4012,1475.7334C592.89813,1469.1967,600.16187,1451.3347,593.62506,1435.8378C588.71844,1424.2053,577.4308,1417.2119,565.55206,1417.2119 Z"/>
</g>
<g style="fill:rgb(0,0,0); fill-opacity:1.0; stroke-linejoin: miter">
<path d="M470.07397,1485.5867L470.07397,1485.5867L470.07397,1509.3169C470.07397,1525.9879,456.5594,1539.5026,439.88828,1539.5026C423.2172,1539.5026,409.70258,1525.9879,409.70258,1509.3169L409.70258,1509.3169L409.70258,1485.5867C409.70258,1468.9155,423.2172,1455.401,439.88828,1455.4009C456.5594,1455.4009,470.07397,1468.9155,470.07397,1485.5867 Z"/>
</g>
<g style="fill:rgb(0,0,0); fill-opacity:1.0; stroke-linejoin: miter">
<path d="M809.926,1485.5867L809.926,1485.5867L809.926,1509.3169C809.926,1525.9879,823.4406,1539.5026,840.1117,1539.5026C856.78284,1539.5026,870.2974,1525.9879,870.2974,1509.3169L870.2974,1509.3169L870.2974,1485.5867C870.2974,1468.9155,856.78284,1455.401,840.1117,1455.4009C823.4406,1455.4009,809.926,1468.9155,809.926,1485.5867 Z"/>
</g>
<g style="fill:rgb(0,0,0); fill-opacity:1.0; stroke-linejoin: miter">
</g>
<g style="fill:rgb(0,0,0); fill-opacity:1.0; stroke-linejoin: miter">
<path d="M638.85016,1554.2119C640.303,1554.8553,641.80304,1555.3824,643.3361,1555.7891L643.32965,1555.7891C643.3299,1555.7893,643.3301,1555.7897,643.3303,1555.7899L643.3397,1555.7899C645.0028,1556.2308,646.70465,1556.5297,648.427,1556.681L648.427,1556.681Q643.00336,1556.2046,638.84375,1554.2119 Z M565.82245,1453.3258C555.85016,1453.3258,546.0899,1458.2634,540.335,1467.2974C531.37805,1481.3579,535.51526,1500.0172,549.57574,1508.9742Q558.8052,1514.8538,579.9985,1525.5865C580.403,1525.7914,580.81226,1525.9873,581.22565,1526.1737Q617.28,1542.435,636.48315,1553.0372C636.9108,1553.2733,637.3437,1553.4988,637.7813,1553.7134L637.7749,1553.7134Q640.328,1555.3942,646.84564,1560.134L646.8392,1560.134C652.6066,1566.0565,660.4724,1569.2382,668.47687,1569.2382C673.9965,1569.2382,679.58215,1567.7252,684.5912,1564.555C698.67804,1555.6395,702.87024,1536.9924,693.9547,1522.9056Q690.0417,1516.723,684.455,1512.8363L684.4482,1512.8363Q672.89197,1504.3931,668.3683,1501.6345L668.3671,1501.6338Q666.4505,1500.4651,664.5288,1499.559L664.52216,1499.559Q643.5052,1488.0542,606.72833,1471.4484L606.7223,1471.4484Q588.63385,1462.2749,582.0119,1458.0565C576.98535,1454.8545,571.3711,1453.3258,565.82245,1453.3258 Z"/>
</g>
<g style="fill:rgb(0,0,0); fill-opacity:1.0; stroke-linejoin: miter">
<path d="M641.14984,1554.2119C639.697,1554.8553,638.19696,1555.3824,636.6639,1555.7891L636.67035,1555.7891C636.6701,1555.7893,636.6699,1555.7897,636.6697,1555.7899L636.6603,1555.7899C634.9972,1556.2308,633.29535,1556.5297,631.573,1556.681L631.573,1556.681Q636.99664,1556.2046,641.15625,1554.2119 Z M714.17755,1453.3258C724.14984,1453.3258,733.9101,1458.2634,739.665,1467.2974C748.62195,1481.3579,744.48474,1500.0172,730.42426,1508.9742Q721.1948,1514.8538,700.0015,1525.5865C699.597,1525.7914,699.18774,1525.9873,698.77435,1526.1737Q662.72,1542.435,643.51685,1553.0372C643.0892,1553.2733,642.6563,1553.4988,642.2187,1553.7134L642.2251,1553.7134Q639.672,1555.3942,633.15436,1560.134L633.1608,1560.134C627.3934,1566.0565,619.5276,1569.2382,611.52313,1569.2382C606.0035,1569.2382,600.41785,1567.7252,595.4088,1564.555C581.32196,1555.6395,577.12976,1536.9924,586.0453,1522.9056Q589.9583,1516.723,595.545,1512.8363L595.5518,1512.8363Q607.10803,1504.3931,611.6317,1501.6345L611.6329,1501.6338Q613.5495,1500.4651,615.4712,1499.559L615.47784,1499.559Q636.4948,1488.0542,673.27167,1471.4484L673.2777,1471.4484Q691.36615,1462.2749,697.9881,1458.0565C703.01465,1454.8545,708.6289,1453.3258,714.17755,1453.3258 Z"/>
</g>
<g style="fill:rgb(0,0,0); fill-opacity:1.0; stroke-linejoin: miter">
<path d="M601.8368,1498.6416C597.28064,1501.6316,593.67566,1505.7766,591.32153,1510.5566L591.32153,1510.5566Q594.7804,1502.1199,601.8308,1498.6416 Z M562.449,1534.6904Q561.41284,1536.2703,560.3094,1537.5312L560.3093,1537.5312C561.0752,1536.6278,561.78784,1535.6792,562.44336,1534.6904 Z M590.3809,1547.1274C592.0719,1547.4601,593.791,1547.648,595.51984,1547.6874Q592.67786,1547.6226,590.375,1547.1274 Z M529.17084,1547.325C529.2276,1547.5833,529.2878,1547.841,529.3513,1548.098L529.34973,1548.098Q529.26044,1547.7443,529.17926,1547.3944L529.174,1547.3944Q529.16974,1547.3599,529.1656,1547.325 Z M539.90045,1471.1558C534.7602,1471.1558,529.5512,1472.47,524.7846,1475.2345C514.16614,1481.393,508.70398,1493.0309,509.90045,1504.4972L509.89532,1504.4972Q504.37335,1514.45,505.66293,1528.4132L505.66293,1528.4132Q505.82715,1530.1918,506.10687,1532.0686L506.10596,1532.0686Q506.9468,1537.8539,509.54977,1543.511L509.54468,1543.511Q510.64334,1547.8473,512.21967,1552.5735L512.21967,1552.5736C512.4885,1553.3798,512.79144,1554.1746,513.1274,1554.9552Q520.475,1572.0293,541.2527,1577.529L541.2602,1577.531Q541.3323,1577.55,541.4045,1577.569L541.39905,1577.569Q541.45856,1577.5864,541.51794,1577.6036L541.51874,1577.6039Q548.36615,1579.5922,554.6514,1579.5922Q559.6324,1579.5922,564.2603,1578.3435L564.26025,1578.3435Q590.4217,1571.2847,590.02155,1547.3865L590.02747,1547.3865Q593.63763,1549.1251,600.932,1553.0759C604.13324,1554.8098,607.62177,1555.9502,611.2288,1556.4421Q615.31635,1556.9996,618.96265,1556.9996Q644.6693,1556.9996,648.4484,1529.2909L648.4487,1529.2886Q649.34625,1522.7039,647.55963,1516.0521C643.9395,1502.5741,631.74677,1493.6891,618.4259,1493.6891C618.1535,1493.6891,617.8806,1493.6929,617.6073,1493.7003L617.6073,1493.7003Q612.8276,1491.3473,609.7445,1490.135L609.7445,1490.135Q606.6951,1488.936,603.7888,1488.2484L603.7828,1488.2484Q596.967,1486.2322,581.18115,1483.5656C580.89044,1483.5165,580.5996,1483.4717,580.3076,1483.4312Q570.8772,1482.1208,562.88257,1481.7281L562.87695,1481.7281C557.05096,1474.8975,548.5736,1471.1558,539.90045,1471.1558 Z"/>
</g>
<g style="fill:rgb(0,0,0); fill-opacity:1.0; stroke-linejoin: miter">
<path d="M678.1632,1498.6416C682.71936,1501.6316,686.32434,1505.7766,688.67847,1510.5566L688.67847,1510.5566Q685.2196,1502.1199,678.1692,1498.6416 Z M717.551,1534.6904Q718.58716,1536.2703,719.6906,1537.5312L719.6907,1537.5312C718.9248,1536.6278,718.21216,1535.6792,717.55664,1534.6904 Z M689.6191,1547.1274C687.9281,1547.4601,686.209,1547.648,684.48016,1547.6874Q687.32214,1547.6226,689.625,1547.1274 Z M750.82916,1547.325C750.7724,1547.5833,750.7122,1547.841,750.6487,1548.098L750.65027,1548.098Q750.73956,1547.7443,750.82074,1547.3944L750.826,1547.3944Q750.83026,1547.3599,750.8344,1547.325 Z M740.09955,1471.1558C745.2398,1471.1558,750.4488,1472.47,755.2154,1475.2345C765.83386,1481.393,771.296,1493.0309,770.09955,1504.4972L770.1047,1504.4972Q775.62665,1514.45,774.33704,1528.4132L774.33704,1528.4132Q774.17285,1530.1918,773.8931,1532.0686L773.89404,1532.0686Q773.0532,1537.8539,770.4502,1543.511L770.4553,1543.511Q769.3567,1547.8473,767.78033,1552.5735L767.78033,1552.5736C767.5115,1553.3798,767.20856,1554.1746,766.8726,1554.9552Q759.525,1572.0293,738.7473,1577.529L738.7398,1577.531Q738.6677,1577.55,738.5955,1577.569L738.60095,1577.569Q738.54144,1577.5864,738.48206,1577.6036L738.48126,1577.6039Q731.63385,1579.5922,725.3486,1579.5922Q720.3676,1579.5922,715.7397,1578.3435L715.73975,1578.3435Q689.5783,1571.2847,689.97845,1547.3865L689.97253,1547.3865Q686.36237,1549.1251,679.068,1553.0759C675.86676,1554.8098,672.37823,1555.9502,668.7712,1556.4421Q664.68365,1556.9996,661.03735,1556.9996Q635.3307,1556.9996,631.5516,1529.2909L631.5513,1529.2886Q630.65375,1522.7039,632.44037,1516.0521C636.0605,1502.5741,648.25323,1493.6891,661.5741,1493.6891C661.8465,1493.6891,662.1194,1493.6929,662.3927,1493.7003L662.3927,1493.7003Q667.1724,1491.3473,670.2555,1490.135L670.2555,1490.135Q673.3049,1488.936,676.2112,1488.2484L676.2172,1488.2484Q683.033,1486.2322,698.81885,1483.5656C699.10956,1483.5165,699.4004,1483.4717,699.6924,1483.4312Q709.1228,1482.1208,717.11743,1481.7281L717.12305,1481.7281C722.94904,1474.8975,731.4264,1471.1558,740.09955,1471.1558 Z"/>
</g>
<g style="fill:rgb(0,0,0); fill-opacity:1.0; stroke-linejoin: miter">
<path d="M593.14197,1401.7727L590.9282,1401.854Q581.00397,1403.2057,576.44464,1406.8029Q572.7032,1409.2739,569.7535,1412.8641Q567.33276,1414.4263,565.24805,1416.4272Q561.72614,1420.0692,560.65454,1422.0511Q554.10754,1433.0192,554.47565,1433.5701Q552.16473,1440.9708,552.6776,1445.3868Q542.5539,1449.392,536.79877,1461.37Q532.1654,1473.0146,536.5516,1484.2484Q540.0563,1494.935,554.7484,1502.0762Q561.2967,1505.7119,590.24426,1517.6252L614.4133,1529.5662Q625.6516,1534.0596,636.4872,1534.3513Q640.3781,1534.3513,643.7929,1533.5591L647.0886,1532.5687Q650.2654,1531.3804,652.966,1529.3997Q660.62164,1523.2424,665.77734,1510.8164L666.9026,1507.1403Q667.74963,1503.4875,667.48364,1499.928Q666.9552,1492.809,661.96155,1486.0635Q662.6321,1479.3336,660.3908,1472.9414Q660.8778,1471.4541,661.1921,1469.9401Q665.21484,1466.3862,667.93805,1460.9187Q669.6598,1457.7714,671.17896,1451.7827Q671.61884,1449.6478,671.74713,1447.5182Q671.8717,1443.8008,671.59686,1442.2489Q672.4915,1438.2869,672.31335,1434.209Q672.13525,1430.1312,670.841,1426.1667Q666.5542,1412.7177,651.5879,1406.9126Q649.297,1406.1614,646.91986,1405.7809Q645.2903,1405.3818,640.6328,1405.4366Q630.27686,1403.1207,621.9868,1402.574Q611.99146,1401.9192,601.2466,1402.8848Q597.21814,1401.7678,593.14197,1401.7727"/>
</g>
<g style="fill:rgb(0,0,0); fill-opacity:1.0; stroke-linejoin: miter">
<path d="M686.85803,1401.7727L689.0718,1401.854Q698.99603,1403.2057,703.55536,1406.8029Q707.2968,1409.2739,710.2465,1412.8641Q712.66724,1414.4263,714.75195,1416.4272Q718.27386,1420.0692,719.34546,1422.0511Q725.89246,1433.0192,725.52435,1433.5701Q727.83527,1440.9708,727.3224,1445.3868Q737.4461,1449.392,743.20123,1461.37Q747.8346,1473.0146,743.4484,1484.2484Q739.9437,1494.935,725.2516,1502.0762Q718.7033,1505.7119,689.75574,1517.6252L665.5867,1529.5662Q654.3484,1534.0596,643.5128,1534.3513Q639.6219,1534.3513,636.2071,1533.5591L632.9114,1532.5687Q629.7346,1531.3804,627.034,1529.3997Q619.37836,1523.2424,614.22266,1510.8164L613.0974,1507.1403Q612.25037,1503.4875,612.51636,1499.928Q613.0448,1492.809,618.03845,1486.0635Q617.3679,1479.3336,619.6092,1472.9414Q619.1222,1471.4541,618.8079,1469.9401Q614.78516,1466.3862,612.06195,1460.9187Q610.3402,1457.7714,608.82104,1451.7827Q608.38116,1449.6478,608.25287,1447.5182Q608.1283,1443.8008,608.40314,1442.2489Q607.5085,1438.2869,607.68665,1434.209Q607.86475,1430.1312,609.159,1426.1667Q613.4458,1412.7177,628.4121,1406.9126Q630.703,1406.1614,633.08014,1405.7809Q634.7097,1405.3818,639.3672,1405.4366Q649.72314,1403.1207,658.0132,1402.574Q668.00854,1401.9192,678.7534,1402.8848Q682.78186,1401.7678,686.85803,1401.7727"/>
</g>
<g style="fill:rgb(0,0,0); fill-opacity:1.0; stroke-linejoin: miter">
<path d="M604.6084,1511.544Q588.92584,1511.544,570.3678,1518.0844C554.6446,1523.6256,546.3905,1540.8638,551.93176,1556.587C556.0005,1568.1321,566.3756,1575.65,577.8267,1576.6368L577.8209,1576.6368Q583.6716,1593.6422,607.9622,1594.8318L607.9561,1594.8318Q610.75226,1594.9923,613.95105,1594.9923Q622.5411,1594.9923,634.035,1593.8351C634.1616,1593.8224,634.2873,1593.809,634.41376,1593.7946Q645.68756,1592.5155,652.692,1590.7072L652.6855,1590.7072Q669.6527,1586.5043,706.9178,1570.903C719.67413,1565.5624,727.16986,1552.2365,725.1095,1538.5616C723.04913,1524.8868,711.9597,1514.3612,698.1961,1513.0164Q696.2396,1512.8252,694.1199,1512.7805L694.1218,1512.7805Q693.5216,1512.7678,692.89453,1512.7678Q684.27484,1512.7678,670.58215,1515.1658L670.5822,1515.1658C670.5279,1515.1753,670.4735,1515.1849,670.41925,1515.1947L658.4131,1517.3652L658.4065,1517.3652Q656.21216,1517.3978,654.89545,1517.463L654.8963,1517.463Q649.3942,1517.7351,644.9046,1518.9402L644.89813,1518.9402Q641.06476,1519.6444,637.3504,1520.3912L637.3504,1520.3912Q633.2763,1518.696,631.49585,1517.7493C630.1234,1517.0194,628.6968,1516.3967,627.2284,1515.8866Q621.6396,1513.9451,617.94635,1513.0182L617.9462,1513.0182Q614.1045,1512.054,610.71375,1511.8005L610.70764,1511.8005Q607.7144,1511.544,604.6084,1511.544 Z"/>
</g>
<g style="fill:rgb(0,0,0); fill-opacity:1.0; stroke-linejoin: miter">
<path d="M675.3916,1511.544Q691.07416,1511.544,709.6322,1518.0844C725.3554,1523.6256,733.6095,1540.8638,728.06824,1556.587C723.9995,1568.1321,713.6244,1575.65,702.1733,1576.6368L702.1791,1576.6368Q696.3284,1593.6422,672.0378,1594.8318L672.0439,1594.8318Q669.24774,1594.9923,666.04895,1594.9923Q657.4589,1594.9923,645.965,1593.8351C645.8384,1593.8224,645.7127,1593.809,645.58624,1593.7946Q634.31244,1592.5155,627.308,1590.7072L627.3145,1590.7072Q610.3473,1586.5043,573.0822,1570.903C560.32587,1565.5624,552.83014,1552.2365,554.8905,1538.5616C556.95087,1524.8868,568.0403,1514.3612,581.8039,1513.0164Q583.7604,1512.8252,585.8801,1512.7805L585.8782,1512.7805Q586.4784,1512.7678,587.10547,1512.7678Q595.72516,1512.7678,609.41785,1515.1658L609.4178,1515.1658C609.4721,1515.1753,609.5265,1515.1849,609.58075,1515.1947L621.5869,1517.3652L621.5935,1517.3652Q623.78784,1517.3978,625.10455,1517.463L625.1037,1517.463Q630.6058,1517.7351,635.0954,1518.9402L635.10187,1518.9402Q638.93524,1519.6444,642.6496,1520.3912L642.6496,1520.3912Q646.7237,1518.696,648.50415,1517.7493C649.8766,1517.0194,651.3032,1516.3967,652.7716,1515.8866Q658.3604,1513.9451,662.05365,1513.0182L662.0538,1513.0182Q665.8955,1512.054,669.28625,1511.8005L669.29236,1511.8005Q672.2856,1511.544,675.3916,1511.544 Z"/>
</g>
<g style="fill:rgb(0,0,0); fill-opacity:1.0; stroke-linejoin: miter">
<path d="M601.9158,1406.712L601.9406,1406.7184L602.1376,1406.7692L602.13153,1406.7693L602.0002,1406.8085L601.86523,1406.8433L601.72675,1406.8738L601.5846,1406.8999L601.43884,1406.9216L601.2895,1406.9391L601.1366,1406.952L600.98004,1406.9607L600.8199,1406.9651Q601.10345,1406.9404,601.37683,1406.8766L601.4675,1406.8544Q601.55786,1406.831,601.6467,1406.8035Q601.6922,1406.7924,601.9097,1406.712L601.9158,1406.712 M624.37067,1410.6603L624.40607,1410.6783Q624.4989,1410.7249,624.59265,1410.7861L624.6106,1410.7988L624.60535,1410.7988L624.71497,1410.8954Q624.8263,1410.9899,624.94403,1411.0758L625.06323,1411.1593Q625.18396,1411.2407,625.3103,1411.3131Q625.6903,1411.5306,626.11163,1411.6613Q625.5899,1411.5001,625.16315,1411.2894Q624.7363,1411.0787,624.40454,1410.8185L624.2445,1410.6853L624.2383,1410.6853L624.37067,1410.6603 M609.05817,1397.5468L608.7322,1397.5498Q607.39404,1397.5737,605.5085,1397.7891L602.18774,1397.7245Q600.9957,1397.8337,600.30145,1398.2322Q597.26514,1397.8385,595.2467,1398.0247Q592.08887,1398.5365,590.1982,1399.1923L588.0327,1400.2389Q587.5393,1400.4803,587.146,1400.827Q586.35504,1401.5333,586.0171,1402.5095Q585.67914,1403.4857,585.8642,1404.5298Q586.2848,1406.1235,587.10126,1406.7476Q588.1019,1407.7634,590.06,1407.7644Q590.6465,1407.7223,591.2174,1407.4993L593.35175,1406.5083Q593.8989,1406.3567,595.85956,1405.928Q596.24207,1405.8641,596.9959,1405.8923Q597.7306,1406.5261,598.7737,1406.7625Q599.1473,1406.8486,600.0679,1406.9584Q600.1907,1406.9038,602.3401,1407.1306L605.5111,1407.5576L608.7871,1408.2954Q609.6529,1408.5121,610.18396,1408.6791L615.41113,1410.573L616.91846,1410.93L618.16925,1411.1129L620.1348,1411.1908Q620.966,1411.1887,621.98846,1410.6334Q622.3489,1410.7258,623.0545,1410.7621Q624.3187,1412.8943,626.57355,1412.9109Q629.1488,1412.9355,630.834,1409.7786Q632.1209,1406.7512,630.3718,1405.0944Q628.2365,1403.601,627.0188,1403.1393Q626.9428,1402.4785,625.77985,1401.4181Q625.03784,1400.85,623.90155,1400.4742Q622.8898,1400.1608,622.33136,1400.1023Q621.7483,1399.7081,621.02997,1399.5348Q620.2995,1399.3623,619.3701,1399.2216Q618.3576,1399.067,617.4789,1398.9994Q615.26575,1398.2374,613.8369,1398.0029Q611.7744,1397.5931,609.05817,1397.5468"/>
</g>
<g style="fill:rgb(0,0,0); fill-opacity:1.0; stroke-linejoin: miter">
<path d="M678.0842,1406.712L678.0594,1406.7184L677.8624,1406.7692L677.86847,1406.7693L677.9998,1406.8085L678.13477,1406.8433L678.27325,1406.8738L678.4154,1406.8999L678.56116,1406.9216L678.7105,1406.9391L678.8634,1406.952L679.01996,1406.9607L679.1801,1406.9651Q678.89655,1406.9404,678.62317,1406.8766L678.5325,1406.8544Q678.44214,1406.831,678.3533,1406.8035Q678.3078,1406.7924,678.0903,1406.712L678.0842,1406.712 M655.62933,1410.6603L655.59393,1410.6783Q655.5011,1410.7249,655.40735,1410.7861L655.3894,1410.7988L655.39465,1410.7988L655.28503,1410.8954Q655.1737,1410.9899,655.05597,1411.0758L654.93677,1411.1593Q654.81604,1411.2407,654.6897,1411.3131Q654.3097,1411.5306,653.88837,1411.6613Q654.4101,1411.5001,654.83685,1411.2894Q655.2637,1411.0787,655.59546,1410.8185L655.7555,1410.6853L655.7617,1410.6853L655.62933,1410.6603 M670.94183,1397.5468L671.2678,1397.5498Q672.60596,1397.5737,674.4915,1397.7891L677.81226,1397.7245Q679.0043,1397.8337,679.69855,1398.2322Q682.73486,1397.8385,684.7533,1398.0247Q687.91113,1398.5365,689.8018,1399.1923L691.9673,1400.2389Q692.4607,1400.4803,692.854,1400.827Q693.64496,1401.5333,693.9829,1402.5095Q694.32086,1403.4857,694.1358,1404.5298Q693.7152,1406.1235,692.89874,1406.7476Q691.8981,1407.7634,689.94,1407.7644Q689.3535,1407.7223,688.7826,1407.4993L686.64825,1406.5083Q686.1011,1406.3567,684.14044,1405.928Q683.75793,1405.8641,683.0041,1405.8923Q682.2694,1406.5261,681.2263,1406.7625Q680.8527,1406.8486,679.9321,1406.9584Q679.8093,1406.9038,677.6599,1407.1306L674.4889,1407.5576L671.2129,1408.2954Q670.3471,1408.5121,669.81604,1408.6791L664.58887,1410.573L663.08154,1410.93L661.83075,1411.1129L659.8652,1411.1908Q659.034,1411.1887,658.01154,1410.6334Q657.6511,1410.7258,656.9455,1410.7621Q655.6813,1412.8943,653.42645,1412.9109Q650.8512,1412.9355,649.166,1409.7786Q647.8791,1406.7512,649.6282,1405.0944Q651.7635,1403.601,652.9812,1403.1393Q653.0572,1402.4785,654.22015,1401.4181Q654.96216,1400.85,656.09845,1400.4742Q657.1102,1400.1608,657.66864,1400.1023Q658.2517,1399.7081,658.97003,1399.5348Q659.7005,1399.3623,660.6299,1399.2216Q661.6424,1399.067,662.5211,1398.9994Q664.73425,1398.2374,666.1631,1398.0029Q668.2256,1397.5931,670.94183,1397.5468"/>
</g>
<g style="fill:rgb(0,0,0); fill-opacity:1.0; stroke-linejoin: miter">
<path d="M609.0015,1397.564L609.0015,1397.564C614.7076,1397.9861,620.34644,1398.4031,625.3772,1398.6447L625.3772,1398.6447C630.39526,1398.8855,634.82434,1398.9526,639.3196,1399.0204C639.48047,1399.0228,639.64105,1399.035,639.8005,1399.0569L639.8005,1399.0569L644.4719,1399.6997C646.6424,1399.9983,648.1598,1401.9999,647.86115,1404.1704C647.56256,1406.3408,645.5609,1407.8583,643.39044,1407.5597L643.39044,1407.5597L638.719,1406.9169L639.19995,1406.9535C634.7139,1406.8859,630.1624,1406.8175,624.9967,1406.5696L624.9967,1406.5696C619.8437,1406.3221,614.0964,1405.8966,608.4161,1405.4763C606.23114,1405.3147,604.59094,1403.4124,604.75256,1401.2274C604.91425,1399.0425,606.8166,1397.4022,609.0015,1397.564 Z"/>
</g>
<g style="fill:rgb(0,0,0); fill-opacity:1.0; stroke-linejoin: miter">
<path d="M670.9986,1397.564L670.9986,1397.564C665.29254,1397.9861,659.6537,1398.4031,654.6229,1398.6447L654.6229,1398.6447C649.60486,1398.8855,645.1758,1398.9526,640.68054,1399.0204C640.51965,1399.0228,640.3591,1399.035,640.19965,1399.0569L640.19965,1399.0569L635.5282,1399.6997C633.3577,1399.9983,631.84033,1401.9999,632.139,1404.1704C632.43756,1406.3408,634.4392,1407.8583,636.6097,1407.5597L636.6097,1407.5597L641.2811,1406.9169L640.8002,1406.9535C645.2862,1406.8859,649.8377,1406.8175,655.0034,1406.5696L655.0034,1406.5696C660.15643,1406.3221,665.90375,1405.8966,671.58405,1405.4763C673.769,1405.3147,675.4092,1403.4124,675.24756,1401.2274C675.0859,1399.0425,673.18353,1397.4022,670.9986,1397.564 Z"/>
</g>
<g style="fill:rgb(0,0,0); fill-opacity:1.0; stroke-linejoin: miter">
<path d="M708.7008,1614.931L708.7008,1614.931C700.43005,1616.5172,692.0231,1618.1309,683.0935,1619.2651L683.0935,1619.2651C674.167,1620.399,664.7695,1621.0485,657.34753,1621.407L657.34753,1621.407C649.9059,1621.7664,644.3988,1621.8357,638.94794,1621.9044C636.7572,1621.932,634.95886,1620.1785,634.9313,1617.9877C634.9036,1615.7969,636.6572,1613.9985,638.84796,1613.971L638.84796,1613.971C644.2894,1613.9023,649.6749,1613.8342,656.9648,1613.4822L656.9648,1613.4822C664.2744,1613.1292,673.4479,1612.4927,682.0937,1611.3944L682.0937,1611.3944C690.7364,1610.2965,698.90344,1608.7313,707.2064,1607.1389C709.3581,1606.7263,711.43695,1608.1361,711.8496,1610.2877C712.26227,1612.4395,710.85254,1614.5183,708.7008,1614.931 Z"/>
</g>
<g style="fill:rgb(0,0,0); fill-opacity:1.0; stroke-linejoin: miter">
<path d="M571.2992,1614.931L571.2992,1614.931C579.56995,1616.5172,587.9769,1618.1309,596.9065,1619.2651L596.9065,1619.2651C605.833,1620.399,615.2305,1621.0485,622.65247,1621.407L622.65247,1621.407C630.0941,1621.7664,635.6012,1621.8357,641.05206,1621.9044C643.2428,1621.932,645.04114,1620.1785,645.0687,1617.9877C645.0964,1615.7969,643.3428,1613.9985,641.15204,1613.971L641.15204,1613.971C635.7106,1613.9023,630.3251,1613.8342,623.0352,1613.4822L623.0352,1613.4822C615.7256,1613.1292,606.5521,1612.4927,597.9063,1611.3944L597.9063,1611.3944C589.2636,1610.2965,581.09656,1608.7313,572.7936,1607.1389C570.6419,1606.7263,568.56305,1608.1361,568.1504,1610.2877C567.73773,1612.4395,569.14746,1614.5183,571.2992,1614.931 Z"/>
</g>
<g style="fill:rgb(0,0,0); fill-opacity:1.0; stroke-linejoin: miter">
<path d="M706.3007,1597.4606L706.3007,1597.4606L706.3007,1597.4606C704.116,1597.6257,702.211,1595.9886,702.0458,1593.804C701.88055,1591.6193,703.51764,1589.7144,705.70233,1589.5491L705.70233,1589.5491L705.7024,1589.5491C707.8871,1589.3838,709.79205,1591.021,709.9573,1593.2056C710.1225,1595.3903,708.4854,1597.2953,706.3007,1597.4606 Z"/>
</g>
<g style="fill:rgb(0,0,0); fill-opacity:1.0; stroke-linejoin: miter">
<path d="M573.6993,1597.4606L573.6993,1597.4606L573.6993,1597.4606C575.884,1597.6257,577.789,1595.9886,577.9542,1593.804C578.11945,1591.6193,576.48236,1589.7144,574.29767,1589.5491L574.29767,1589.5491L574.2976,1589.5491C572.1129,1589.3838,570.20795,1591.021,570.0427,1593.2056C569.8775,1595.3903,571.5146,1597.2953,573.6993,1597.4606 Z"/>
</g>
<g style="fill:rgb(0,0,0); fill-opacity:1.0; stroke-linejoin: miter">
<path d="M677.4008,1566.1512L677.08405,1566.1638Q675.78723,1566.2711,674.7744,1567.1411L672.36487,1570.1536Q670.37897,1567.31,666.16394,1567.6039Q658.3309,1568.9672,652.01355,1571.4631Q643.586,1575.6396,646.7803,1581.2009Q636.3978,1583.6626,637.98334,1588.3187L628.9783,1589.6277Q626.5757,1590.6578,626.4201,1593.3047Q619.2416,1593.1085,615.23114,1593.6099Q613.29205,1594.104,612.47003,1595.8834Q611.29297,1601.0084,616.7507,1601.6647Q613.3024,1605.2069,617.60376,1608.3912Q621.68243,1609.5469,631.43585,1609.7457Q631.5507,1611.9415,639.2742,1614.832Q645.7286,1617.1951,653.4709,1617.1758Q657.29956,1617.2054,664.114,1615.3148Q668.6857,1614.9307,671.09235,1614.3464L675.6271,1613.9723Q677.16693,1613.5801,678.02356,1612.3079Q689.539,1612.6764,699.0023,1610.2393Q701.30664,1609.4816,701.95996,1607.8075Q702.83844,1607.5603,703.76624,1606.9923Q704.60254,1606.384,705.03656,1605.4739Q705.8828,1603.4572,704.86487,1601.7361Q703.7144,1599.8638,701.3595,1599.7997Q704.4291,1598.6058,704.7995,1597.7507Q705.9774,1596.1875,705.474,1594.2305Q706.33716,1593.7412,706.85535,1592.9497Q707.37714,1592.1582,707.4788,1591.2164Q709.1675,1589.8815,709.1146,1588.9988Q708.9526,1583.7534,704.83514,1584.0193Q709.0669,1582.7394,709.4391,1580.3293Q709.9906,1576.8873,706.69824,1575.5819Q705.5642,1575.2661,704.504,1575.572Q699.1012,1578.0334,692.74475,1579.5599L672.83765,1582.528L671.7535,1582.7909Q667.6621,1584.6337,669.38727,1588.4355Q668.1792,1588.7609,667.3871,1589.6713L659.7179,1591.0984Q659.7753,1589.8867,659.5364,1589.2849Q664.6111,1587.1344,664.1524,1583.8433Q666.4459,1583.3181,668.53625,1582.4587L670.57574,1581.5157Q672.5644,1580.4893,674.34985,1579.1284Q677.92065,1576.4069,680.67847,1572.3481Q681.88306,1570.3959,680.9784,1568.4106Q679.7187,1566.1719,677.4008,1566.1512"/>
</g>
<g style="fill:rgb(0,0,0); fill-opacity:1.0; stroke-linejoin: miter">
<path d="M602.5991,1566.1512L602.9159,1566.1638Q604.2127,1566.2711,605.2255,1567.1411L607.6351,1570.1536Q609.621,1567.31,613.836,1567.6039Q621.66907,1568.9672,627.9864,1571.4631Q636.41394,1575.6396,633.21967,1581.2009Q643.6021,1583.6626,642.0166,1588.3187L651.02167,1589.6277Q653.42426,1590.6578,653.57983,1593.3047Q660.75836,1593.1085,664.7688,1593.6099Q666.7079,1594.104,667.5299,1595.8834Q668.707,1601.0084,663.24927,1601.6647Q666.6975,1605.2069,662.3962,1608.3912Q658.3175,1609.5469,648.5641,1609.7457Q648.4492,1611.9415,640.72577,1614.832Q634.27136,1617.1951,626.52905,1617.1758Q622.7004,1617.2054,615.8859,1615.3148Q611.3142,1614.9307,608.9076,1614.3464L604.37286,1613.9723Q602.833,1613.5801,601.9764,1612.3079Q590.46094,1612.6764,580.9976,1610.2391Q578.6933,1609.4814,578.04,1607.8074Q577.1615,1607.5602,576.2337,1606.9922Q575.3974,1606.3839,574.9634,1605.4738Q574.1171,1603.457,575.1351,1601.736Q576.2855,1599.8636,578.64044,1599.7996Q575.57086,1598.6057,575.20044,1597.7506Q574.0225,1596.1874,574.52594,1594.2303Q573.6628,1593.7411,573.1446,1592.9496Q572.6228,1592.1581,572.5211,1591.2163Q570.83246,1589.8813,570.8853,1588.9987Q571.04736,1583.7533,575.1648,1584.0192Q570.93304,1582.7393,570.56085,1580.3292Q570.00934,1576.8872,573.3017,1575.5818Q574.4357,1575.266,575.4959,1575.5719Q580.89874,1578.0333,587.2552,1579.5599L607.1623,1582.528L608.24646,1582.7909Q612.3378,1584.6337,610.6127,1588.4355Q611.82074,1588.7609,612.61285,1589.6713L620.28204,1591.0984Q620.2246,1589.8867,620.46356,1589.2849Q615.38885,1587.1344,615.84753,1583.8433Q613.554,1583.3181,611.4637,1582.4587L609.4242,1581.5157Q607.43555,1580.4893,605.6501,1579.1284Q602.0793,1576.4069,599.3215,1572.3481Q598.1169,1570.3959,599.02155,1568.4106Q600.28125,1566.1719,602.5991,1566.1512"/>
</g>
</g>
</svg>
